<?xml version="1.0" encoding="UTF-8" standalone="no"?>
<svg xmlns="http://www.w3.org/2000/svg" xmlns:xlink="http://www.w3.org/1999/xlink" contentScriptType="application/ecmascript" contentStyleType="text/css" height="473px" preserveAspectRatio="none" style="width:317px;height:473px;" version="1.1" viewBox="0 0 317 473" width="317px" zoomAndPan="magnify"><defs><filter height="300%" id="f6y9u906gf2uz" width="300%" x="-1" y="-1"><feGaussianBlur result="blurOut" stdDeviation="2.0"/><feColorMatrix in="blurOut" result="blurOut2" type="matrix" values="0 0 0 0 0 0 0 0 0 0 0 0 0 0 0 0 0 0 .4 0"/><feOffset dx="4.0" dy="4.0" in="blurOut2" result="blurOut3"/><feBlend in="SourceGraphic" in2="blurOut3" mode="normal"/></filter></defs><g><rect fill="#FFFFFF" filter="url(#f6y9u906gf2uz)" height="46.2656" style="stroke:#000000;stroke-width:2.0;" width="293" x="10" y="144.6953"/><rect fill="#FFFFFF" filter="url(#f6y9u906gf2uz)" height="119.3359" style="stroke:#000000;stroke-width:2.0;" width="293" x="10" y="204.9609"/><rect fill="#FFFFFF" height="43.9375" style="stroke:none;stroke-width:1.0;" width="293" x="10" y="280.3594"/><rect fill="#FFFFFF" filter="url(#f6y9u906gf2uz)" height="75.3984" style="stroke:#000000;stroke-width:2.0;" width="293" x="10" y="338.2969"/><line style="stroke:#A80036;stroke-width:1.0;stroke-dasharray:5.0,5.0;" x1="50" x2="50" y1="40.2969" y2="430.6953"/><line style="stroke:#A80036;stroke-width:1.0;stroke-dasharray:5.0,5.0;" x1="260" x2="260" y1="40.2969" y2="430.6953"/><rect fill="#FEFECE" filter="url(#f6y9u906gf2uz)" height="30.2969" style="stroke:#A80036;stroke-width:1.5;" width="57" x="20" y="5"/><text fill="#000000" font-family="sans-serif" font-size="14" lengthAdjust="spacing" textLength="43" x="27" y="24.9951">Client</text><rect fill="#FEFECE" filter="url(#f6y9u906gf2uz)" height="30.2969" style="stroke:#A80036;stroke-width:1.5;" width="57" x="20" y="429.6953"/><text fill="#000000" font-family="sans-serif" font-size="14" lengthAdjust="spacing" textLength="43" x="27" y="449.6904">Client</text><rect fill="#FEFECE" filter="url(#f6y9u906gf2uz)" height="30.2969" style="stroke:#A80036;stroke-width:1.5;" width="61" x="228" y="5"/><text fill="#000000" font-family="sans-serif" font-size="14" lengthAdjust="spacing" textLength="47" x="235" y="24.9951">Server</text><rect fill="#FEFECE" filter="url(#f6y9u906gf2uz)" height="30.2969" style="stroke:#A80036;stroke-width:1.5;" width="61" x="228" y="429.6953"/><text fill="#000000" font-family="sans-serif" font-size="14" lengthAdjust="spacing" textLength="47" x="235" y="449.6904">Server</text><polygon fill="#A80036" points="248.5,67.4297,258.5,71.4297,248.5,75.4297,252.5,71.4297" style="stroke:#A80036;stroke-width:1.0;"/><line style="stroke:#A80036;stroke-width:1.0;" x1="50.5" x2="254.5" y1="71.4297" y2="71.4297"/><text fill="#000000" font-family="sans-serif" font-size="13" lengthAdjust="spacing" textLength="37" x="57.5" y="66.3638">Ping()</text><polygon fill="#A80036" points="61.5,96.5625,51.5,100.5625,61.5,104.5625,57.5,100.5625" style="stroke:#A80036;stroke-width:1.0;"/><line style="stroke:#A80036;stroke-width:1.0;" x1="55.5" x2="259.5" y1="100.5625" y2="100.5625"/><text fill="#000000" font-family="sans-serif" font-size="13" lengthAdjust="spacing" textLength="33" x="67.5" y="95.4966">Ack()</text><polygon fill="#A80036" points="248.5,125.6953,258.5,129.6953,248.5,133.6953,252.5,129.6953" style="stroke:#A80036;stroke-width:1.0;"/><line style="stroke:#A80036;stroke-width:1.0;" x1="50.5" x2="254.5" y1="129.6953" y2="129.6953"/><text fill="#000000" font-family="sans-serif" font-size="13" lengthAdjust="spacing" textLength="119" x="57.5" y="124.6294">SetupConnection()</text><path d="M10,144.6953 L76,144.6953 L76,151.6953 L66,161.6953 L10,161.6953 L10,144.6953 " fill="#EEEEEE" style="stroke:#000000;stroke-width:1.0;"/><rect fill="none" height="46.2656" style="stroke:#000000;stroke-width:2.0;" width="293" x="10" y="144.6953"/><text fill="#000000" font-family="sans-serif" font-size="13" font-weight="bold" lengthAdjust="spacing" textLength="21" x="25" y="157.7622">alt</text><text fill="#000000" font-family="sans-serif" font-size="11" font-weight="bold" lengthAdjust="spacing" textLength="163" x="91" y="156.9058">[nickname not available]</text><polygon fill="#A80036" points="61.5,178.9609,51.5,182.9609,61.5,186.9609,57.5,182.9609" style="stroke:#A80036;stroke-width:1.0;"/><line style="stroke:#A80036;stroke-width:1.0;" x1="55.5" x2="259.5" y1="182.9609" y2="182.9609"/><text fill="#000000" font-family="sans-serif" font-size="13" lengthAdjust="spacing" textLength="113" x="67.5" y="177.895">ConnectionError()</text><path d="M10,204.9609 L76,204.9609 L76,211.9609 L66,221.9609 L10,221.9609 L10,204.9609 " fill="#EEEEEE" style="stroke:#000000;stroke-width:1.0;"/><rect fill="none" height="119.3359" style="stroke:#000000;stroke-width:2.0;" width="293" x="10" y="204.9609"/><text fill="#000000" font-family="sans-serif" font-size="13" font-weight="bold" lengthAdjust="spacing" textLength="21" x="25" y="218.0278">alt</text><text fill="#000000" font-family="sans-serif" font-size="11" font-weight="bold" lengthAdjust="spacing" textLength="86" x="91" y="217.1714">[first player]</text><polygon fill="#A80036" points="61.5,239.2266,51.5,243.2266,61.5,247.2266,57.5,243.2266" style="stroke:#A80036;stroke-width:1.0;"/><line style="stroke:#A80036;stroke-width:1.0;" x1="55.5" x2="259.5" y1="243.2266" y2="243.2266"/><text fill="#000000" font-family="sans-serif" font-size="13" lengthAdjust="spacing" textLength="161" x="67.5" y="238.1606">RequestPlayersNumber()</text><polygon fill="#A80036" points="248.5,268.3594,258.5,272.3594,248.5,276.3594,252.5,272.3594" style="stroke:#A80036;stroke-width:1.0;"/><line style="stroke:#A80036;stroke-width:1.0;" x1="50.5" x2="254.5" y1="272.3594" y2="272.3594"/><text fill="#000000" font-family="sans-serif" font-size="13" lengthAdjust="spacing" textLength="108" x="57.5" y="267.2935">PlayersNumber()</text><line style="stroke:#000000;stroke-width:1.0;stroke-dasharray:2.0,2.0;" x1="10" x2="303" y1="281.3594" y2="281.3594"/><text fill="#000000" font-family="sans-serif" font-size="11" font-weight="bold" lengthAdjust="spacing" textLength="139" x="15" y="291.5698">[subsequent players]</text><polygon fill="#A80036" points="61.5,312.2969,51.5,316.2969,61.5,320.2969,57.5,316.2969" style="stroke:#A80036;stroke-width:1.0;"/><line style="stroke:#A80036;stroke-width:1.0;" x1="55.5" x2="259.5" y1="316.2969" y2="316.2969"/><text fill="#000000" font-family="sans-serif" font-size="13" lengthAdjust="spacing" textLength="186" x="67.5" y="311.231">CurrentPlayersAndSlotsLeft()</text><path d="M10,338.2969 L124,338.2969 L124,345.2969 L114,355.2969 L10,355.2969 L10,338.2969 " fill="#EEEEEE" style="stroke:#000000;stroke-width:1.0;"/><rect fill="none" height="75.3984" style="stroke:#000000;stroke-width:2.0;" width="293" x="10" y="338.2969"/><text fill="#000000" font-family="sans-serif" font-size="13" font-weight="bold" lengthAdjust="spacing" textLength="69" x="25" y="351.3638">lobby full</text><polygon fill="#A80036" points="61.5,372.5625,51.5,376.5625,61.5,380.5625,57.5,376.5625" style="stroke:#A80036;stroke-width:1.0;"/><line style="stroke:#A80036;stroke-width:1.0;" x1="55.5" x2="259.5" y1="376.5625" y2="376.5625"/><text fill="#000000" font-family="sans-serif" font-size="13" lengthAdjust="spacing" textLength="109" x="67.5" y="371.4966">GameIsStarting()</text><polygon fill="#A80036" points="61.5,401.6953,51.5,405.6953,61.5,409.6953,57.5,405.6953" style="stroke:#A80036;stroke-width:1.0;"/><line style="stroke:#A80036;stroke-width:1.0;" x1="55.5" x2="259.5" y1="405.6953" y2="405.6953"/><text fill="#000000" font-family="sans-serif" font-size="13" lengthAdjust="spacing" textLength="120" x="67.5" y="400.6294">GameHasStarted()</text><!--MD5=[e60a79ea93627f51ab3a74dacc05d9b1]
@startuml
Client-> Server: Ping()
Client<- Server: Ack()
Client-> Server: SetupConnection()
alt nickname not available
    Client<- Server: ConnectionError()
end
alt first player

    Client<- Server: RequestPlayersNumber()
    Client-> Server: PlayersNumber()
else subsequent players
    Client<- Server: CurrentPlayersAndSlotsLeft()
end
group lobby full

    Client <- Server: GameIsStarting()
    Client <- Server: GameHasStarted()

end
@enduml

PlantUML version 1.2021.5beta3(Unknown compile time)
(GPL source distribution)
Java Runtime: Java(TM) SE Runtime Environment
JVM: Java HotSpot(TM) 64-Bit Server VM
Default Encoding: UTF-8
Language: en
Country: US
--></g></svg>