<?xml version="1.0" encoding="UTF-8" standalone="no"?>
<svg xmlns="http://www.w3.org/2000/svg" xmlns:xlink="http://www.w3.org/1999/xlink" contentScriptType="application/ecmascript" contentStyleType="text/css" height="440px" preserveAspectRatio="none" style="width:887px;height:440px;background:#FFFFFF;" version="1.1" viewBox="0 0 887 440" width="887px" zoomAndPan="magnify"><script xmlns=""/><defs><filter height="300%" id="fk262iijs99ig" width="300%" x="-1" y="-1"><feGaussianBlur result="blurOut" stdDeviation="2.0"/><feColorMatrix in="blurOut" result="blurOut2" type="matrix" values="0 0 0 0 0 0 0 0 0 0 0 0 0 0 0 0 0 0 .4 0"/><feOffset dx="4.0" dy="4.0" in="blurOut2" result="blurOut3"/><feBlend in="SourceGraphic" in2="blurOut3" mode="normal"/></filter></defs><g><rect fill="#FFFFFF" filter="url(#fk262iijs99ig)" height="206.7344" style="stroke:#000000;stroke-width:2.0;" width="713" x="10" y="173.8281"/><rect fill="#FFFFFF" height="102.2031" style="stroke:none;stroke-width:1.0;" width="713" x="10" y="278.3594"/><line style="stroke:#A80036;stroke-width:1.0;stroke-dasharray:5.0,5.0;" x1="50" x2="50" y1="40.2969" y2="397.5625"/><line style="stroke:#A80036;stroke-width:1.0;stroke-dasharray:5.0,5.0;" x1="259" x2="259" y1="40.2969" y2="397.5625"/><line style="stroke:#A80036;stroke-width:1.0;stroke-dasharray:5.0,5.0;" x1="463" x2="463" y1="40.2969" y2="397.5625"/><line style="stroke:#A80036;stroke-width:1.0;stroke-dasharray:5.0,5.0;" x1="667" x2="667" y1="40.2969" y2="397.5625"/><line style="stroke:#A80036;stroke-width:1.0;stroke-dasharray:5.0,5.0;" x1="827.5" x2="827.5" y1="40.2969" y2="397.5625"/><rect fill="#FEFECE" filter="url(#fk262iijs99ig)" height="30.2969" style="stroke:#A80036;stroke-width:1.5;" width="57" x="20" y="5"/><text fill="#000000" font-family="sans-serif" font-size="14" lengthAdjust="spacing" textLength="43" x="27" y="24.9951">Client</text><rect fill="#FEFECE" filter="url(#fk262iijs99ig)" height="30.2969" style="stroke:#A80036;stroke-width:1.5;" width="57" x="20" y="396.5625"/><text fill="#000000" font-family="sans-serif" font-size="14" lengthAdjust="spacing" textLength="43" x="27" y="416.5576">Client</text><rect fill="#FEFECE" filter="url(#fk262iijs99ig)" height="30.2969" style="stroke:#A80036;stroke-width:1.5;" width="61" x="227" y="5"/><text fill="#000000" font-family="sans-serif" font-size="14" lengthAdjust="spacing" textLength="47" x="234" y="24.9951">Server</text><rect fill="#FEFECE" filter="url(#fk262iijs99ig)" height="30.2969" style="stroke:#A80036;stroke-width:1.5;" width="61" x="227" y="396.5625"/><text fill="#000000" font-family="sans-serif" font-size="14" lengthAdjust="spacing" textLength="47" x="234" y="416.5576">Server</text><rect fill="#FEFECE" filter="url(#fk262iijs99ig)" height="30.2969" style="stroke:#A80036;stroke-width:1.5;" width="111" x="406" y="5"/><text fill="#000000" font-family="sans-serif" font-size="14" lengthAdjust="spacing" textLength="97" x="413" y="24.9951">GameHandler</text><rect fill="#FEFECE" filter="url(#fk262iijs99ig)" height="30.2969" style="stroke:#A80036;stroke-width:1.5;" width="111" x="406" y="396.5625"/><text fill="#000000" font-family="sans-serif" font-size="14" lengthAdjust="spacing" textLength="97" x="413" y="416.5576">GameHandler</text><rect fill="#FEFECE" filter="url(#fk262iijs99ig)" height="30.2969" style="stroke:#A80036;stroke-width:1.5;" width="87" x="622" y="5"/><text fill="#000000" font-family="sans-serif" font-size="14" lengthAdjust="spacing" textLength="73" x="629" y="24.9951">Controller</text><rect fill="#FEFECE" filter="url(#fk262iijs99ig)" height="30.2969" style="stroke:#A80036;stroke-width:1.5;" width="87" x="622" y="396.5625"/><text fill="#000000" font-family="sans-serif" font-size="14" lengthAdjust="spacing" textLength="73" x="629" y="416.5576">Controller</text><rect fill="#FEFECE" filter="url(#fk262iijs99ig)" height="30.2969" style="stroke:#A80036;stroke-width:1.5;" width="96" x="777.5" y="5"/><text fill="#000000" font-family="sans-serif" font-size="14" lengthAdjust="spacing" textLength="82" x="784.5" y="24.9951">GameTable</text><rect fill="#FEFECE" filter="url(#fk262iijs99ig)" height="30.2969" style="stroke:#A80036;stroke-width:1.5;" width="96" x="777.5" y="396.5625"/><text fill="#000000" font-family="sans-serif" font-size="14" lengthAdjust="spacing" textLength="82" x="784.5" y="416.5576">GameTable</text><polygon fill="#A80036" points="247.5,67.4297,257.5,71.4297,247.5,75.4297,251.5,71.4297" style="stroke:#A80036;stroke-width:1.0;"/><line style="stroke:#A80036;stroke-width:1.0;" x1="50.5" x2="253.5" y1="71.4297" y2="71.4297"/><text fill="#000000" font-family="sans-serif" font-size="13" lengthAdjust="spacing" textLength="137" x="57.5" y="66.3638">ActivateCardLeader()</text><polygon fill="#A80036" points="451.5,96.5625,461.5,100.5625,451.5,104.5625,455.5,100.5625" style="stroke:#A80036;stroke-width:1.0;"/><line style="stroke:#A80036;stroke-width:1.0;" x1="259.5" x2="457.5" y1="100.5625" y2="100.5625"/><text fill="#000000" font-family="sans-serif" font-size="13" lengthAdjust="spacing" textLength="86" x="266.5" y="95.4966">makeAction()</text><polygon fill="#A80036" points="655.5,125.6953,665.5,129.6953,655.5,133.6953,659.5,129.6953" style="stroke:#A80036;stroke-width:1.0;"/><line style="stroke:#A80036;stroke-width:1.0;" x1="463.5" x2="661.5" y1="129.6953" y2="129.6953"/><text fill="#000000" font-family="sans-serif" font-size="13" lengthAdjust="spacing" textLength="86" x="470.5" y="124.6294">makeAction()</text><polygon fill="#A80036" points="815.5,154.8281,825.5,158.8281,815.5,162.8281,819.5,158.8281" style="stroke:#A80036;stroke-width:1.0;"/><line style="stroke:#A80036;stroke-width:1.0;" x1="667.5" x2="821.5" y1="158.8281" y2="158.8281"/><text fill="#000000" font-family="sans-serif" font-size="13" lengthAdjust="spacing" textLength="136" x="674.5" y="153.7622">activateCardLeader()</text><path d="M10,173.8281 L76,173.8281 L76,180.8281 L66,190.8281 L10,190.8281 L10,173.8281 " fill="#EEEEEE" style="stroke:#000000;stroke-width:1.0;"/><rect fill="none" height="206.7344" style="stroke:#000000;stroke-width:2.0;" width="713" x="10" y="173.8281"/><text fill="#000000" font-family="sans-serif" font-size="13" font-weight="bold" lengthAdjust="spacing" textLength="21" x="25" y="186.895">alt</text><text fill="#000000" font-family="sans-serif" font-size="11" font-weight="bold" lengthAdjust="spacing" textLength="81" x="91" y="186.0386">[move valid]</text><polygon fill="#A80036" points="474.5,208.0938,464.5,212.0938,474.5,216.0938,470.5,212.0938" style="stroke:#A80036;stroke-width:1.0;"/><line style="stroke:#A80036;stroke-width:1.0;stroke-dasharray:2.0,2.0;" x1="468.5" x2="666.5" y1="212.0938" y2="212.0938"/><text fill="#000000" font-family="sans-serif" font-size="13" lengthAdjust="spacing" textLength="180" x="480.5" y="207.0278">AnswerAcivateCardLeader()</text><polygon fill="#A80036" points="270.5,237.2266,260.5,241.2266,270.5,245.2266,266.5,241.2266" style="stroke:#A80036;stroke-width:1.0;"/><line style="stroke:#A80036;stroke-width:1.0;stroke-dasharray:2.0,2.0;" x1="264.5" x2="462.5" y1="241.2266" y2="241.2266"/><text fill="#000000" font-family="sans-serif" font-size="13" lengthAdjust="spacing" textLength="180" x="276.5" y="236.1606">AnswerAcivateCardLeader()</text><polygon fill="#A80036" points="61.5,266.3594,51.5,270.3594,61.5,274.3594,57.5,270.3594" style="stroke:#A80036;stroke-width:1.0;"/><line style="stroke:#A80036;stroke-width:1.0;stroke-dasharray:2.0,2.0;" x1="55.5" x2="258.5" y1="270.3594" y2="270.3594"/><text fill="#000000" font-family="sans-serif" font-size="13" lengthAdjust="spacing" textLength="185" x="67.5" y="265.2935">AnswerActivateCardLeader()</text><line style="stroke:#000000;stroke-width:1.0;stroke-dasharray:2.0,2.0;" x1="10" x2="723" y1="279.3594" y2="279.3594"/><text fill="#000000" font-family="sans-serif" font-size="11" font-weight="bold" lengthAdjust="spacing" textLength="93" x="15" y="289.5698">[move invalid]</text><polygon fill="#A80036" points="474.5,310.2969,464.5,314.2969,474.5,318.2969,470.5,314.2969" style="stroke:#A80036;stroke-width:1.0;"/><line style="stroke:#A80036;stroke-width:1.0;stroke-dasharray:2.0,2.0;" x1="468.5" x2="666.5" y1="314.2969" y2="314.2969"/><text fill="#000000" font-family="sans-serif" font-size="13" lengthAdjust="spacing" textLength="113" x="480.5" y="309.231">GameLogicError()</text><polygon fill="#A80036" points="270.5,339.4297,260.5,343.4297,270.5,347.4297,266.5,343.4297" style="stroke:#A80036;stroke-width:1.0;"/><line style="stroke:#A80036;stroke-width:1.0;stroke-dasharray:2.0,2.0;" x1="264.5" x2="462.5" y1="343.4297" y2="343.4297"/><text fill="#000000" font-family="sans-serif" font-size="13" lengthAdjust="spacing" textLength="113" x="276.5" y="338.3638">GameLogicError()</text><polygon fill="#A80036" points="61.5,368.5625,51.5,372.5625,61.5,376.5625,57.5,372.5625" style="stroke:#A80036;stroke-width:1.0;"/><line style="stroke:#A80036;stroke-width:1.0;stroke-dasharray:2.0,2.0;" x1="55.5" x2="258.5" y1="372.5625" y2="372.5625"/><text fill="#000000" font-family="sans-serif" font-size="13" lengthAdjust="spacing" textLength="113" x="67.5" y="367.4966">GameLogicError()</text><!--MD5=[d5bc26b88db0bdae19b16f5f5b693f3a]
@startuml
Player-> CLI: "card leader"
Player<- CLI: displayCardLeader()
Player<- CLI: askCardLeader()
Player -> CLI: Index 
CLI-> Client: sendCardLearderActivation()
Client-> Server: ActivateCardLeader()

Server-> GameHandler: makeAction()

GameHandler-> Controller: makeAction()

Controller-> GameTable: activateCardLeader()

alt move valid
    GameHandler<-- Controller: AnswerAcivateCardLeader()
    Server<-- GameHandler: AnswerAcivateCardLeader()
    Client<-- Server: AnswerActivateCardLeader()
    CLI<- Client: success()
    Player<- CLI: displaySuccess()


else move invalid
    GameHandler<-- Controller: GameLogicError()
    Server<-- GameHandler: GameLogicError()
    Client<-- Server: GameLogicError()
    CLI <-- Client: printGameError()
    Player <-- CLI: displayGameError()
    
end
@enduml


PlantUML version 1.2021.6beta6(Unknown compile time)
(GPL source distribution)
Java Runtime: Java(TM) SE Runtime Environment
JVM: Java HotSpot(TM) 64-Bit Server VM
Default Encoding: UTF-8
Language: en
Country: US
--></g></svg>
