<?xml version="1.0" encoding="UTF-8" standalone="no"?>
<svg xmlns="http://www.w3.org/2000/svg" xmlns:xlink="http://www.w3.org/1999/xlink" contentScriptType="application/ecmascript" contentStyleType="text/css" height="938px" preserveAspectRatio="none" style="width:1248px;height:938px;background:#FFFFFF;" version="1.1" viewBox="0 0 1248 938" width="1248px" zoomAndPan="magnify"><script xmlns=""/><defs><filter height="300%" id="f182rm4wyhgm5f" width="300%" x="-1" y="-1"><feGaussianBlur result="blurOut" stdDeviation="2.0"/><feColorMatrix in="blurOut" result="blurOut2" type="matrix" values="0 0 0 0 0 0 0 0 0 0 0 0 0 0 0 0 0 0 .4 0"/><feOffset dx="4.0" dy="4.0" in="blurOut2" result="blurOut3"/><feBlend in="SourceGraphic" in2="blurOut3" mode="normal"/></filter></defs><g><rect fill="#FFFFFF" filter="url(#f182rm4wyhgm5f)" height="577.3281" style="stroke:#A80036;stroke-width:1.0;" width="10" x="702" y="270.3594"/><rect fill="#FFFFFF" filter="url(#f182rm4wyhgm5f)" height="87.3984" style="stroke:#A80036;stroke-width:1.0;" width="10" x="854" y="299.4922"/><rect fill="#FFFFFF" filter="url(#f182rm4wyhgm5f)" height="349.5938" style="stroke:#A80036;stroke-width:1.0;" width="10" x="854" y="454.9609"/><rect fill="#FFFFFF" filter="url(#f182rm4wyhgm5f)" height="58.2656" style="stroke:#A80036;stroke-width:1.0;" width="10" x="1159" y="299.4922"/><rect fill="#FFFFFF" filter="url(#f182rm4wyhgm5f)" height="320.4609" style="stroke:#A80036;stroke-width:1.0;" width="10" x="1159" y="484.0938"/><rect fill="#FFFFFF" filter="url(#f182rm4wyhgm5f)" height="587.4609" style="stroke:#000000;stroke-width:2.0;" width="1224" x="10" y="232.0938"/><rect fill="#FFFFFF" height="424.6641" style="stroke:none;stroke-width:1.0;" width="1224" x="10" y="394.8906"/><rect fill="#FFFFFF" filter="url(#f182rm4wyhgm5f)" height="395.8594" style="stroke:#000000;stroke-width:2.0;" width="1204" x="20" y="416.6953"/><line style="stroke:#A80036;stroke-width:1.0;stroke-dasharray:5.0,5.0;" x1="60" x2="60" y1="40.2969" y2="894.8203"/><line style="stroke:#A80036;stroke-width:1.0;stroke-dasharray:5.0,5.0;" x1="243.5" x2="243.5" y1="40.2969" y2="894.8203"/><line style="stroke:#A80036;stroke-width:1.0;stroke-dasharray:5.0,5.0;" x1="401.5" x2="401.5" y1="40.2969" y2="894.8203"/><line style="stroke:#A80036;stroke-width:1.0;stroke-dasharray:5.0,5.0;" x1="463.5" x2="463.5" y1="40.2969" y2="894.8203"/><line style="stroke:#A80036;stroke-width:1.0;stroke-dasharray:5.0,5.0;" x1="706.5" x2="706.5" y1="40.2969" y2="894.8203"/><line style="stroke:#A80036;stroke-width:1.0;stroke-dasharray:5.0,5.0;" x1="858.5" x2="858.5" y1="40.2969" y2="894.8203"/><line style="stroke:#A80036;stroke-width:1.0;stroke-dasharray:5.0,5.0;" x1="1164" x2="1164" y1="40.2969" y2="894.8203"/><rect fill="#FEFECE" filter="url(#f182rm4wyhgm5f)" height="30.2969" style="stroke:#A80036;stroke-width:1.5;" width="57" x="30" y="5"/><text fill="#000000" font-family="sans-serif" font-size="14" lengthAdjust="spacing" textLength="43" x="37" y="24.9951">Client</text><rect fill="#FEFECE" filter="url(#f182rm4wyhgm5f)" height="30.2969" style="stroke:#A80036;stroke-width:1.5;" width="57" x="30" y="893.8203"/><text fill="#000000" font-family="sans-serif" font-size="14" lengthAdjust="spacing" textLength="43" x="37" y="913.8154">Client</text><rect fill="#FEFECE" filter="url(#f182rm4wyhgm5f)" height="30.2969" style="stroke:#A80036;stroke-width:1.5;" width="48" x="217.5" y="5"/><text fill="#000000" font-family="sans-serif" font-size="14" lengthAdjust="spacing" textLength="34" x="224.5" y="24.9951">View</text><rect fill="#FEFECE" filter="url(#f182rm4wyhgm5f)" height="30.2969" style="stroke:#A80036;stroke-width:1.5;" width="48" x="217.5" y="893.8203"/><text fill="#000000" font-family="sans-serif" font-size="14" lengthAdjust="spacing" textLength="34" x="224.5" y="913.8154">View</text><rect fill="#FEFECE" filter="url(#f182rm4wyhgm5f)" height="30.2969" style="stroke:#A80036;stroke-width:1.5;" width="36" x="381.5" y="5"/><text fill="#000000" font-family="sans-serif" font-size="14" lengthAdjust="spacing" textLength="22" x="388.5" y="24.9951">CLI</text><rect fill="#FEFECE" filter="url(#f182rm4wyhgm5f)" height="30.2969" style="stroke:#A80036;stroke-width:1.5;" width="36" x="381.5" y="893.8203"/><text fill="#000000" font-family="sans-serif" font-size="14" lengthAdjust="spacing" textLength="22" x="388.5" y="913.8154">CLI</text><rect fill="#FEFECE" filter="url(#f182rm4wyhgm5f)" height="30.2969" style="stroke:#A80036;stroke-width:1.5;" width="61" x="431.5" y="5"/><text fill="#000000" font-family="sans-serif" font-size="14" lengthAdjust="spacing" textLength="47" x="438.5" y="24.9951">Server</text><rect fill="#FEFECE" filter="url(#f182rm4wyhgm5f)" height="30.2969" style="stroke:#A80036;stroke-width:1.5;" width="61" x="431.5" y="893.8203"/><text fill="#000000" font-family="sans-serif" font-size="14" lengthAdjust="spacing" textLength="47" x="438.5" y="913.8154">Server</text><rect fill="#FEFECE" filter="url(#f182rm4wyhgm5f)" height="30.2969" style="stroke:#A80036;stroke-width:1.5;" width="111" x="649.5" y="5"/><text fill="#000000" font-family="sans-serif" font-size="14" lengthAdjust="spacing" textLength="97" x="656.5" y="24.9951">GameHandler</text><rect fill="#FEFECE" filter="url(#f182rm4wyhgm5f)" height="30.2969" style="stroke:#A80036;stroke-width:1.5;" width="111" x="649.5" y="893.8203"/><text fill="#000000" font-family="sans-serif" font-size="14" lengthAdjust="spacing" textLength="97" x="656.5" y="913.8154">GameHandler</text><rect fill="#FEFECE" filter="url(#f182rm4wyhgm5f)" height="30.2969" style="stroke:#A80036;stroke-width:1.5;" width="87" x="813.5" y="5"/><text fill="#000000" font-family="sans-serif" font-size="14" lengthAdjust="spacing" textLength="73" x="820.5" y="24.9951">Controller</text><rect fill="#FEFECE" filter="url(#f182rm4wyhgm5f)" height="30.2969" style="stroke:#A80036;stroke-width:1.5;" width="87" x="813.5" y="893.8203"/><text fill="#000000" font-family="sans-serif" font-size="14" lengthAdjust="spacing" textLength="73" x="820.5" y="913.8154">Controller</text><rect fill="#FEFECE" filter="url(#f182rm4wyhgm5f)" height="30.2969" style="stroke:#A80036;stroke-width:1.5;" width="96" x="1114" y="5"/><text fill="#000000" font-family="sans-serif" font-size="14" lengthAdjust="spacing" textLength="82" x="1121" y="24.9951">GameTable</text><rect fill="#FEFECE" filter="url(#f182rm4wyhgm5f)" height="30.2969" style="stroke:#A80036;stroke-width:1.5;" width="96" x="1114" y="893.8203"/><text fill="#000000" font-family="sans-serif" font-size="14" lengthAdjust="spacing" textLength="82" x="1121" y="913.8154">GameTable</text><rect fill="#FFFFFF" filter="url(#f182rm4wyhgm5f)" height="577.3281" style="stroke:#A80036;stroke-width:1.0;" width="10" x="702" y="270.3594"/><rect fill="#FFFFFF" filter="url(#f182rm4wyhgm5f)" height="87.3984" style="stroke:#A80036;stroke-width:1.0;" width="10" x="854" y="299.4922"/><rect fill="#FFFFFF" filter="url(#f182rm4wyhgm5f)" height="349.5938" style="stroke:#A80036;stroke-width:1.0;" width="10" x="854" y="454.9609"/><rect fill="#FFFFFF" filter="url(#f182rm4wyhgm5f)" height="58.2656" style="stroke:#A80036;stroke-width:1.0;" width="10" x="1159" y="299.4922"/><rect fill="#FFFFFF" filter="url(#f182rm4wyhgm5f)" height="320.4609" style="stroke:#A80036;stroke-width:1.0;" width="10" x="1159" y="484.0938"/><polygon fill="#A80036" points="231.5,67.4297,241.5,71.4297,231.5,75.4297,235.5,71.4297" style="stroke:#A80036;stroke-width:1.0;"/><line style="stroke:#A80036;stroke-width:1.0;" x1="60.5" x2="237.5" y1="71.4297" y2="71.4297"/><text fill="#000000" font-family="sans-serif" font-size="13" lengthAdjust="spacing" textLength="95" x="67.5" y="66.3638">askForMarket()</text><polygon fill="#A80036" points="389.5,96.5625,399.5,100.5625,389.5,104.5625,393.5,100.5625" style="stroke:#A80036;stroke-width:1.0;"/><line style="stroke:#A80036;stroke-width:1.0;" x1="243.5" x2="395.5" y1="100.5625" y2="100.5625"/><text fill="#000000" font-family="sans-serif" font-size="13" lengthAdjust="spacing" textLength="82" x="250.5" y="95.4966">printMarket()</text><polygon fill="#A80036" points="389.5,125.6953,399.5,129.6953,389.5,133.6953,393.5,129.6953" style="stroke:#A80036;stroke-width:1.0;"/><line style="stroke:#A80036;stroke-width:1.0;" x1="243.5" x2="395.5" y1="129.6953" y2="129.6953"/><text fill="#000000" font-family="sans-serif" font-size="13" lengthAdjust="spacing" textLength="118" x="250.5" y="124.6294">askMarketChoice()</text><polygon fill="#A80036" points="254.5,154.8281,244.5,158.8281,254.5,162.8281,250.5,158.8281" style="stroke:#A80036;stroke-width:1.0;"/><line style="stroke:#A80036;stroke-width:1.0;" x1="248.5" x2="400.5" y1="158.8281" y2="158.8281"/><text fill="#000000" font-family="sans-serif" font-size="13" lengthAdjust="spacing" textLength="134" x="260.5" y="153.7622">Row/column,Number</text><polygon fill="#A80036" points="71.5,183.9609,61.5,187.9609,71.5,191.9609,67.5,187.9609" style="stroke:#A80036;stroke-width:1.0;"/><line style="stroke:#A80036;stroke-width:1.0;" x1="65.5" x2="242.5" y1="187.9609" y2="187.9609"/><text fill="#000000" font-family="sans-serif" font-size="13" lengthAdjust="spacing" textLength="127" x="77.5" y="182.895">sendMarketChoice()</text><polygon fill="#A80036" points="452,213.0938,462,217.0938,452,221.0938,456,217.0938" style="stroke:#A80036;stroke-width:1.0;"/><line style="stroke:#A80036;stroke-width:1.0;" x1="60.5" x2="458" y1="217.0938" y2="217.0938"/><text fill="#000000" font-family="sans-serif" font-size="13" lengthAdjust="spacing" textLength="77" x="67.5" y="212.0278">UseMarket()</text><path d="M10,232.0938 L76,232.0938 L76,239.0938 L66,249.0938 L10,249.0938 L10,232.0938 " fill="#EEEEEE" style="stroke:#000000;stroke-width:1.0;"/><rect fill="none" height="587.4609" style="stroke:#000000;stroke-width:2.0;" width="1224" x="10" y="232.0938"/><text fill="#000000" font-family="sans-serif" font-size="13" font-weight="bold" lengthAdjust="spacing" textLength="21" x="25" y="245.1606">alt</text><text fill="#000000" font-family="sans-serif" font-size="11" font-weight="bold" lengthAdjust="spacing" textLength="172" x="91" y="244.3042">[tryAddMarbles() == true]</text><polygon fill="#A80036" points="690,266.3594,700,270.3594,690,274.3594,694,270.3594" style="stroke:#A80036;stroke-width:1.0;"/><line style="stroke:#A80036;stroke-width:1.0;" x1="464" x2="696" y1="270.3594" y2="270.3594"/><text fill="#000000" font-family="sans-serif" font-size="13" lengthAdjust="spacing" textLength="86" x="471" y="265.2935">makeAction()</text><polygon fill="#A80036" points="842,295.4922,852,299.4922,842,303.4922,846,299.4922" style="stroke:#A80036;stroke-width:1.0;"/><line style="stroke:#A80036;stroke-width:1.0;" x1="712" x2="848" y1="299.4922" y2="299.4922"/><text fill="#000000" font-family="sans-serif" font-size="13" lengthAdjust="spacing" textLength="86" x="719" y="294.4263">makeAction()</text><polygon fill="#A80036" points="1147,324.625,1157,328.625,1147,332.625,1151,328.625" style="stroke:#A80036;stroke-width:1.0;"/><line style="stroke:#A80036;stroke-width:1.0;" x1="864" x2="1153" y1="328.625" y2="328.625"/><text fill="#000000" font-family="sans-serif" font-size="13" lengthAdjust="spacing" textLength="102" x="871" y="323.5591">tryAddMarbles()</text><polygon fill="#A80036" points="875,353.7578,865,357.7578,875,361.7578,871,357.7578" style="stroke:#A80036;stroke-width:1.0;"/><line style="stroke:#A80036;stroke-width:1.0;" x1="869" x2="1163" y1="357.7578" y2="357.7578"/><text fill="#000000" font-family="sans-serif" font-size="13" lengthAdjust="spacing" textLength="26" x="881" y="352.6919">true</text><polygon fill="#A80036" points="723,382.8906,713,386.8906,723,390.8906,719,386.8906" style="stroke:#A80036;stroke-width:1.0;"/><line style="stroke:#A80036;stroke-width:1.0;" x1="717" x2="858" y1="386.8906" y2="386.8906"/><text fill="#000000" font-family="sans-serif" font-size="13" lengthAdjust="spacing" textLength="26" x="729" y="381.8247">true</text><line style="stroke:#000000;stroke-width:1.0;stroke-dasharray:2.0,2.0;" x1="10" x2="1234" y1="395.8906" y2="395.8906"/><text fill="#000000" font-family="sans-serif" font-size="11" font-weight="bold" lengthAdjust="spacing" textLength="125" x="15" y="406.1011">[tryAdd() == false]</text><path d="M20,416.6953 L98,416.6953 L98,423.6953 L88,433.6953 L20,433.6953 L20,416.6953 " fill="#EEEEEE" style="stroke:#000000;stroke-width:1.0;"/><rect fill="none" height="395.8594" style="stroke:#000000;stroke-width:2.0;" width="1204" x="20" y="416.6953"/><text fill="#000000" font-family="sans-serif" font-size="13" font-weight="bold" lengthAdjust="spacing" textLength="33" x="35" y="429.7622">loop</text><text fill="#000000" font-family="sans-serif" font-size="11" font-weight="bold" lengthAdjust="spacing" textLength="155" x="113" y="428.9058">[until tryAdd() == true]</text><polygon fill="#A80036" points="690,450.9609,700,454.9609,690,458.9609,694,454.9609" style="stroke:#A80036;stroke-width:1.0;"/><line style="stroke:#A80036;stroke-width:1.0;" x1="464" x2="696" y1="454.9609" y2="454.9609"/><text fill="#000000" font-family="sans-serif" font-size="13" lengthAdjust="spacing" textLength="86" x="471" y="449.895">makeAction()</text><polygon fill="#A80036" points="842,480.0938,852,484.0938,842,488.0938,846,484.0938" style="stroke:#A80036;stroke-width:1.0;"/><line style="stroke:#A80036;stroke-width:1.0;" x1="712" x2="848" y1="484.0938" y2="484.0938"/><text fill="#000000" font-family="sans-serif" font-size="13" lengthAdjust="spacing" textLength="86" x="719" y="479.0278">makeAction()</text><polygon fill="#A80036" points="1147,509.2266,1157,513.2266,1147,517.2266,1151,513.2266" style="stroke:#A80036;stroke-width:1.0;"/><line style="stroke:#A80036;stroke-width:1.0;" x1="864" x2="1153" y1="513.2266" y2="513.2266"/><text fill="#000000" font-family="sans-serif" font-size="13" lengthAdjust="spacing" textLength="102" x="871" y="508.1606">tryAddMarbles()</text><polygon fill="#A80036" points="875,538.3594,865,542.3594,875,546.3594,871,542.3594" style="stroke:#A80036;stroke-width:1.0;"/><line style="stroke:#A80036;stroke-width:1.0;" x1="869" x2="1158" y1="542.3594" y2="542.3594"/><text fill="#000000" font-family="sans-serif" font-size="13" lengthAdjust="spacing" textLength="31" x="881" y="537.2935">false</text><polygon fill="#A80036" points="723,567.4922,713,571.4922,723,575.4922,719,571.4922" style="stroke:#A80036;stroke-width:1.0;"/><line style="stroke:#A80036;stroke-width:1.0;" x1="717" x2="853" y1="571.4922" y2="571.4922"/><text fill="#000000" font-family="sans-serif" font-size="13" lengthAdjust="spacing" textLength="31" x="729" y="566.4263">false</text><polygon fill="#A80036" points="475,596.625,465,600.625,475,604.625,471,600.625" style="stroke:#A80036;stroke-width:1.0;"/><line style="stroke:#A80036;stroke-width:1.0;" x1="469" x2="701" y1="600.625" y2="600.625"/><text fill="#000000" font-family="sans-serif" font-size="13" lengthAdjust="spacing" textLength="214" x="481" y="595.5591">RequestDiscardResourceMarket()</text><polygon fill="#A80036" points="71.5,625.7578,61.5,629.7578,71.5,633.7578,67.5,629.7578" style="stroke:#A80036;stroke-width:1.0;"/><line style="stroke:#A80036;stroke-width:1.0;" x1="65.5" x2="463" y1="629.7578" y2="629.7578"/><text fill="#000000" font-family="sans-serif" font-size="13" lengthAdjust="spacing" textLength="214" x="77.5" y="624.6919">RequestDiscardResourceMarket()</text><polygon fill="#A80036" points="231.5,654.8906,241.5,658.8906,231.5,662.8906,235.5,658.8906" style="stroke:#A80036;stroke-width:1.0;"/><line style="stroke:#A80036;stroke-width:1.0;" x1="60.5" x2="237.5" y1="658.8906" y2="658.8906"/><text fill="#000000" font-family="sans-serif" font-size="13" lengthAdjust="spacing" textLength="156" x="67.5" y="653.8247">askResourceToDiscard()</text><polygon fill="#A80036" points="71.5,684.0234,61.5,688.0234,71.5,692.0234,67.5,688.0234" style="stroke:#A80036;stroke-width:1.0;"/><line style="stroke:#A80036;stroke-width:1.0;" x1="65.5" x2="242.5" y1="688.0234" y2="688.0234"/><text fill="#000000" font-family="sans-serif" font-size="13" lengthAdjust="spacing" textLength="159" x="77.5" y="682.9575">sendResourceSelection()</text><polygon fill="#A80036" points="452,713.1563,462,717.1563,452,721.1563,456,717.1563" style="stroke:#A80036;stroke-width:1.0;"/><line style="stroke:#A80036;stroke-width:1.0;" x1="60.5" x2="458" y1="717.1563" y2="717.1563"/><text fill="#000000" font-family="sans-serif" font-size="13" lengthAdjust="spacing" textLength="161" x="67.5" y="712.0903">DiscardResourceMarket()</text><polygon fill="#A80036" points="690,742.2891,700,746.2891,690,750.2891,694,746.2891" style="stroke:#A80036;stroke-width:1.0;"/><line style="stroke:#A80036;stroke-width:1.0;" x1="464" x2="696" y1="746.2891" y2="746.2891"/><text fill="#000000" font-family="sans-serif" font-size="13" lengthAdjust="spacing" textLength="118" x="471" y="741.2231">DiscardResource()</text><polygon fill="#A80036" points="842,771.4219,852,775.4219,842,779.4219,846,775.4219" style="stroke:#A80036;stroke-width:1.0;"/><line style="stroke:#A80036;stroke-width:1.0;" x1="712" x2="848" y1="775.4219" y2="775.4219"/><text fill="#000000" font-family="sans-serif" font-size="13" lengthAdjust="spacing" textLength="118" x="719" y="770.356">DiscardResource()</text><polygon fill="#A80036" points="1152,800.5547,1162,804.5547,1152,808.5547,1156,804.5547" style="stroke:#A80036;stroke-width:1.0;"/><line style="stroke:#A80036;stroke-width:1.0;" x1="859" x2="1158" y1="804.5547" y2="804.5547"/><text fill="#000000" font-family="sans-serif" font-size="13" lengthAdjust="spacing" textLength="271" x="866" y="799.4888">DiscardResourceFromTemporaryDeposit()</text><polygon fill="#A80036" points="475,843.6875,465,847.6875,475,851.6875,471,847.6875" style="stroke:#A80036;stroke-width:1.0;"/><line style="stroke:#A80036;stroke-width:1.0;stroke-dasharray:2.0,2.0;" x1="469" x2="706" y1="847.6875" y2="847.6875"/><text fill="#000000" font-family="sans-serif" font-size="13" lengthAdjust="spacing" textLength="125" x="481" y="842.6216">AnswerUseMarket()</text><polygon fill="#A80036" points="71.5,872.8203,61.5,876.8203,71.5,880.8203,67.5,876.8203" style="stroke:#A80036;stroke-width:1.0;"/><line style="stroke:#A80036;stroke-width:1.0;stroke-dasharray:2.0,2.0;" x1="65.5" x2="463" y1="876.8203" y2="876.8203"/><text fill="#000000" font-family="sans-serif" font-size="13" lengthAdjust="spacing" textLength="125" x="77.5" y="871.7544">AnswerUseMarket()</text><!--MD5=[3e75920d1514ab7063b539894b6533a8]
@startuml
Client-> View: askForMarket()
View-> CLI: printMarket()
View-> CLI: askMarketChoice()
CLI-> View: Row/column,Number
View->Client: sendMarketChoice()

Client-> Server: UseMarket()



alt tryAddMarbles() == true
            Server-> GameHandler: makeAction()
             activate GameHandler

            GameHandler-> Controller: makeAction()
            activate Controller 
            activate GameTable
            Controller-> GameTable: tryAddMarbles()
            Controller<- GameTable: true
            deactivate GameTable
            Controller -> GameHandler: true
            deactivate Controller
            

else tryAdd() == false
        loop until tryAdd() == true
            Server-> GameHandler: makeAction()

            activate Controller
            GameHandler-> Controller: makeAction()
            
            activate GameTable
            Controller-> GameTable: tryAddMarbles()
            Controller<- GameTable: false
                       
      
            Controller -> GameHandler: false

            GameHandler->Server: RequestDiscardResourceMarket()
            Client<- Server: RequestDiscardResourceMarket()
            View<-Client: askResourceToDiscard()
            View->Client: sendResourceSelection()

            Client-> Server: DiscardResourceMarket()

            Server-> GameHandler: DiscardResource()


            GameHandler-> Controller: DiscardResource()


            Controller-> GameTable: DiscardResourceFromTemporaryDeposit()
            deactivate GameTable
            deactivate Controller


        end
end
Server<- - GameHandler: AnswerUseMarket()

deactivate GameHandler

Client<- - Server: AnswerUseMarket()
@enduml

PlantUML version 1.2021.6beta6(Unknown compile time)
(GPL source distribution)
Java Runtime: Java(TM) SE Runtime Environment
JVM: Java HotSpot(TM) 64-Bit Server VM
Default Encoding: UTF-8
Language: en
Country: US
--></g></svg>