<?xml version="1.0" encoding="UTF-8" standalone="no"?>
<svg xmlns="http://www.w3.org/2000/svg" xmlns:xlink="http://www.w3.org/1999/xlink" contentScriptType="application/ecmascript" contentStyleType="text/css" height="442px" preserveAspectRatio="none" style="width:993px;height:442px;" version="1.1" viewBox="0 0 993 442" width="993px" zoomAndPan="magnify"><script xmlns=""/><defs><filter height="300%" id="f187wi728ys4fk" width="300%" x="-1" y="-1"><feGaussianBlur result="blurOut" stdDeviation="2.0"/><feColorMatrix in="blurOut" result="blurOut2" type="matrix" values="0 0 0 0 0 0 0 0 0 0 0 0 0 0 0 0 0 0 .4 0"/><feOffset dx="4.0" dy="4.0" in="blurOut2" result="blurOut3"/><feBlend in="SourceGraphic" in2="blurOut3" mode="normal"/></filter></defs><g><rect fill="#FFFFFF" filter="url(#f187wi728ys4fk)" height="311.1328" style="stroke:#A80036;stroke-width:1.0;" width="10" x="298.5" y="71.4297"/><rect fill="#FFFFFF" filter="url(#f187wi728ys4fk)" height="87.3984" style="stroke:#A80036;stroke-width:1.0;" width="10" x="457.5" y="251.0313"/><rect fill="#FFFFFF" filter="url(#f187wi728ys4fk)" height="29.1328" style="stroke:#A80036;stroke-width:1.0;" width="10" x="604.5" y="280.1641"/><rect fill="#FFFFFF" filter="url(#f187wi728ys4fk)" height="296.1328" style="stroke:#000000;stroke-width:2.0;" width="969.5" x="10" y="86.4297"/><rect fill="#FFFFFF" height="249.8672" style="stroke:none;stroke-width:1.0;" width="969.5" x="10" y="132.6953"/><rect fill="#FFFFFF" filter="url(#f187wi728ys4fk)" height="221.0625" style="stroke:#000000;stroke-width:2.0;" width="949.5" x="20" y="154.5"/><line style="stroke:#A80036;stroke-width:1.0;stroke-dasharray:5.0,5.0;" x1="60" x2="60" y1="40.2969" y2="399.5625"/><line style="stroke:#A80036;stroke-width:1.0;stroke-dasharray:5.0,5.0;" x1="303" x2="303" y1="40.2969" y2="399.5625"/><line style="stroke:#A80036;stroke-width:1.0;stroke-dasharray:5.0,5.0;" x1="462" x2="462" y1="40.2969" y2="399.5625"/><line style="stroke:#A80036;stroke-width:1.0;stroke-dasharray:5.0,5.0;" x1="609" x2="609" y1="40.2969" y2="399.5625"/><line style="stroke:#A80036;stroke-width:1.0;stroke-dasharray:5.0,5.0;" x1="909.5" x2="909.5" y1="40.2969" y2="399.5625"/><rect fill="#FEFECE" filter="url(#f187wi728ys4fk)" height="30.2969" style="stroke:#A80036;stroke-width:1.5;" width="57" x="30" y="5"/><text fill="#000000" font-family="sans-serif" font-size="14" lengthAdjust="spacing" textLength="43" x="37" y="24.9951">Client</text><rect fill="#FEFECE" filter="url(#f187wi728ys4fk)" height="30.2969" style="stroke:#A80036;stroke-width:1.5;" width="57" x="30" y="398.5625"/><text fill="#000000" font-family="sans-serif" font-size="14" lengthAdjust="spacing" textLength="43" x="37" y="418.5576">Client</text><rect fill="#FEFECE" filter="url(#f187wi728ys4fk)" height="30.2969" style="stroke:#A80036;stroke-width:1.5;" width="61" x="271" y="5"/><text fill="#000000" font-family="sans-serif" font-size="14" lengthAdjust="spacing" textLength="47" x="278" y="24.9951">Server</text><rect fill="#FEFECE" filter="url(#f187wi728ys4fk)" height="30.2969" style="stroke:#A80036;stroke-width:1.5;" width="61" x="271" y="398.5625"/><text fill="#000000" font-family="sans-serif" font-size="14" lengthAdjust="spacing" textLength="47" x="278" y="418.5576">Server</text><rect fill="#FEFECE" filter="url(#f187wi728ys4fk)" height="30.2969" style="stroke:#A80036;stroke-width:1.5;" width="111" x="405" y="5"/><text fill="#000000" font-family="sans-serif" font-size="14" lengthAdjust="spacing" textLength="97" x="412" y="24.9951">GameHandler</text><rect fill="#FEFECE" filter="url(#f187wi728ys4fk)" height="30.2969" style="stroke:#A80036;stroke-width:1.5;" width="111" x="405" y="398.5625"/><text fill="#000000" font-family="sans-serif" font-size="14" lengthAdjust="spacing" textLength="97" x="412" y="418.5576">GameHandler</text><rect fill="#FEFECE" filter="url(#f187wi728ys4fk)" height="30.2969" style="stroke:#A80036;stroke-width:1.5;" width="87" x="564" y="5"/><text fill="#000000" font-family="sans-serif" font-size="14" lengthAdjust="spacing" textLength="73" x="571" y="24.9951">Controller</text><rect fill="#FEFECE" filter="url(#f187wi728ys4fk)" height="30.2969" style="stroke:#A80036;stroke-width:1.5;" width="87" x="564" y="398.5625"/><text fill="#000000" font-family="sans-serif" font-size="14" lengthAdjust="spacing" textLength="73" x="571" y="418.5576">Controller</text><rect fill="#FEFECE" filter="url(#f187wi728ys4fk)" height="30.2969" style="stroke:#A80036;stroke-width:1.5;" width="96" x="859.5" y="5"/><text fill="#000000" font-family="sans-serif" font-size="14" lengthAdjust="spacing" textLength="82" x="866.5" y="24.9951">GameTable</text><rect fill="#FEFECE" filter="url(#f187wi728ys4fk)" height="30.2969" style="stroke:#A80036;stroke-width:1.5;" width="96" x="859.5" y="398.5625"/><text fill="#000000" font-family="sans-serif" font-size="14" lengthAdjust="spacing" textLength="82" x="866.5" y="418.5576">GameTable</text><rect fill="#FFFFFF" filter="url(#f187wi728ys4fk)" height="311.1328" style="stroke:#A80036;stroke-width:1.0;" width="10" x="298.5" y="71.4297"/><rect fill="#FFFFFF" filter="url(#f187wi728ys4fk)" height="87.3984" style="stroke:#A80036;stroke-width:1.0;" width="10" x="457.5" y="251.0313"/><rect fill="#FFFFFF" filter="url(#f187wi728ys4fk)" height="29.1328" style="stroke:#A80036;stroke-width:1.0;" width="10" x="604.5" y="280.1641"/><polygon fill="#A80036" points="286.5,67.4297,296.5,71.4297,286.5,75.4297,290.5,71.4297" style="stroke:#A80036;stroke-width:1.0;"/><line style="stroke:#A80036;stroke-width:1.0;" x1="60.5" x2="292.5" y1="71.4297" y2="71.4297"/><text fill="#000000" font-family="sans-serif" font-size="13" lengthAdjust="spacing" textLength="77" x="67.5" y="66.3638">UseMarket()</text><path d="M10,86.4297 L76,86.4297 L76,93.4297 L66,103.4297 L10,103.4297 L10,86.4297 " fill="#EEEEEE" style="stroke:#000000;stroke-width:1.0;"/><rect fill="none" height="296.1328" style="stroke:#000000;stroke-width:2.0;" width="969.5" x="10" y="86.4297"/><text fill="#000000" font-family="sans-serif" font-size="13" font-weight="bold" lengthAdjust="spacing" textLength="21" x="25" y="99.4966">alt</text><text fill="#000000" font-family="sans-serif" font-size="11" font-weight="bold" lengthAdjust="spacing" textLength="120" x="91" y="98.6401">[tryAdd() == true]</text><polygon fill="#A80036" points="71.5,120.6953,61.5,124.6953,71.5,128.6953,67.5,124.6953" style="stroke:#A80036;stroke-width:1.0;"/><line style="stroke:#A80036;stroke-width:1.0;stroke-dasharray:2.0,2.0;" x1="65.5" x2="297.5" y1="124.6953" y2="124.6953"/><text fill="#000000" font-family="sans-serif" font-size="13" lengthAdjust="spacing" textLength="125" x="77.5" y="119.6294">AnswerUseMarket()</text><line style="stroke:#000000;stroke-width:1.0;stroke-dasharray:2.0,2.0;" x1="10" x2="979.5" y1="133.6953" y2="133.6953"/><text fill="#000000" font-family="sans-serif" font-size="11" font-weight="bold" lengthAdjust="spacing" textLength="125" x="15" y="143.9058">[tryAdd() == false]</text><path d="M20,154.5 L98,154.5 L98,161.5 L88,171.5 L20,171.5 L20,154.5 " fill="#EEEEEE" style="stroke:#000000;stroke-width:1.0;"/><rect fill="none" height="221.0625" style="stroke:#000000;stroke-width:2.0;" width="949.5" x="20" y="154.5"/><text fill="#000000" font-family="sans-serif" font-size="13" font-weight="bold" lengthAdjust="spacing" textLength="33" x="35" y="167.5669">loop</text><text fill="#000000" font-family="sans-serif" font-size="11" font-weight="bold" lengthAdjust="spacing" textLength="155" x="113" y="166.7104">[until tryAdd() == true]</text><polygon fill="#A80036" points="71.5,188.7656,61.5,192.7656,71.5,196.7656,67.5,192.7656" style="stroke:#A80036;stroke-width:1.0;"/><line style="stroke:#A80036;stroke-width:1.0;" x1="65.5" x2="297.5" y1="192.7656" y2="192.7656"/><text fill="#000000" font-family="sans-serif" font-size="13" lengthAdjust="spacing" textLength="214" x="77.5" y="187.6997">RequestDiscardResourceMarket()</text><polygon fill="#A80036" points="286.5,217.8984,296.5,221.8984,286.5,225.8984,290.5,221.8984" style="stroke:#A80036;stroke-width:1.0;"/><line style="stroke:#A80036;stroke-width:1.0;" x1="60.5" x2="292.5" y1="221.8984" y2="221.8984"/><text fill="#000000" font-family="sans-serif" font-size="13" lengthAdjust="spacing" textLength="161" x="67.5" y="216.8325">DiscardResourceMarket()</text><polygon fill="#A80036" points="445.5,247.0313,455.5,251.0313,445.5,255.0313,449.5,251.0313" style="stroke:#A80036;stroke-width:1.0;"/><line style="stroke:#A80036;stroke-width:1.0;" x1="308.5" x2="451.5" y1="251.0313" y2="251.0313"/><text fill="#000000" font-family="sans-serif" font-size="13" lengthAdjust="spacing" textLength="118" x="315.5" y="245.9653">DiscardResource()</text><polygon fill="#A80036" points="592.5,276.1641,602.5,280.1641,592.5,284.1641,596.5,280.1641" style="stroke:#A80036;stroke-width:1.0;"/><line style="stroke:#A80036;stroke-width:1.0;" x1="467.5" x2="598.5" y1="280.1641" y2="280.1641"/><text fill="#000000" font-family="sans-serif" font-size="13" lengthAdjust="spacing" textLength="118" x="474.5" y="275.0981">DiscardResource()</text><polygon fill="#A80036" points="897.5,305.2969,907.5,309.2969,897.5,313.2969,901.5,309.2969" style="stroke:#A80036;stroke-width:1.0;"/><line style="stroke:#A80036;stroke-width:1.0;" x1="609.5" x2="903.5" y1="309.2969" y2="309.2969"/><text fill="#000000" font-family="sans-serif" font-size="13" lengthAdjust="spacing" textLength="271" x="616.5" y="304.231">DiscardResourceFromTemporaryDeposit()</text><polygon fill="#A80036" points="319.5,334.4297,309.5,338.4297,319.5,342.4297,315.5,338.4297" style="stroke:#A80036;stroke-width:1.0;"/><line style="stroke:#A80036;stroke-width:1.0;stroke-dasharray:2.0,2.0;" x1="313.5" x2="461.5" y1="338.4297" y2="338.4297"/><text fill="#000000" font-family="sans-serif" font-size="13" lengthAdjust="spacing" textLength="125" x="325.5" y="333.3638">AnswerUseMarket()</text><polygon fill="#A80036" points="71.5,363.5625,61.5,367.5625,71.5,371.5625,67.5,367.5625" style="stroke:#A80036;stroke-width:1.0;"/><line style="stroke:#A80036;stroke-width:1.0;stroke-dasharray:2.0,2.0;" x1="65.5" x2="297.5" y1="367.5625" y2="367.5625"/><text fill="#000000" font-family="sans-serif" font-size="13" lengthAdjust="spacing" textLength="125" x="77.5" y="362.4966">AnswerUseMarket()</text><!--MD5=[3fceb9845fe6f706084a4d961a166711]
@startuml
Client-> Server: UseMarket()
activate Server

alt tryAdd() == true
    Client<- - Server: AnswerUseMarket()  
else tryAdd() == false
        loop until tryAdd() == true
            Client<- Server: RequestDiscardResourceMarket()

            Client-> Server: DiscardResourceMarket()

            Server-> GameHandler: DiscardResource()
             activate GameHandler

            GameHandler-> Controller: DiscardResource()
            activate Controller 

            Controller-> GameTable: DiscardResourceFromTemporaryDeposit()
            deactivate Controller

            Server<- - GameHandler: AnswerUseMarket()
             deactivate GameHandler

            Client<- - Server: AnswerUseMarket()


        end

deactivate Server


end
@enduml

PlantUML version 1.2021.6beta4(Unknown compile time)
(GPL source distribution)
Java Runtime: Java(TM) SE Runtime Environment
JVM: Java HotSpot(TM) 64-Bit Server VM
Default Encoding: UTF-8
Language: en
Country: US
--></g></svg>