<svg xmlns="http://www.w3.org/2000/svg" xmlns:xlink="http://www.w3.org/1999/xlink" contentScriptType="application/ecmascript" contentStyleType="text/css" height="1054px" preserveAspectRatio="none" style="width:1446px;height:1054px;background:#FFFFFF;" version="1.1" viewBox="0 0 1446 1054" width="1446px" zoomAndPan="magnify"><defs><filter height="300%" id="f12edmttg3rv25" width="300%" x="-1" y="-1"><feGaussianBlur result="blurOut" stdDeviation="2.0"/><feColorMatrix in="blurOut" result="blurOut2" type="matrix" values="0 0 0 0 0 0 0 0 0 0 0 0 0 0 0 0 0 0 .4 0"/><feOffset dx="4.0" dy="4.0" in="blurOut2" result="blurOut3"/><feBlend in="SourceGraphic" in2="blurOut3" mode="normal"/></filter></defs><g><rect fill="#FFFFFF" filter="url(#f12edmttg3rv25)" height="635.5938" style="stroke:#A80036;stroke-width:1.0;" width="10" x="900" y="270.3594"/><rect fill="#FFFFFF" filter="url(#f12edmttg3rv25)" height="87.3984" style="stroke:#A80036;stroke-width:1.0;" width="10" x="1052" y="299.4922"/><rect fill="#FFFFFF" filter="url(#f12edmttg3rv25)" height="407.8594" style="stroke:#A80036;stroke-width:1.0;" width="10" x="1052" y="454.9609"/><rect fill="#FFFFFF" filter="url(#f12edmttg3rv25)" height="58.2656" style="stroke:#A80036;stroke-width:1.0;" width="10" x="1357" y="299.4922"/><rect fill="#FFFFFF" filter="url(#f12edmttg3rv25)" height="378.7266" style="stroke:#A80036;stroke-width:1.0;" width="10" x="1357" y="484.0938"/><rect fill="#FFFFFF" filter="url(#f12edmttg3rv25)" height="645.7266" style="stroke:#000000;stroke-width:2.0;" width="1422" x="10" y="232.0938"/><rect fill="#FFFFFF" height="482.9297" style="stroke:none;stroke-width:1.0;" width="1422" x="10" y="394.8906"/><rect fill="#FFFFFF" filter="url(#f12edmttg3rv25)" height="454.125" style="stroke:#000000;stroke-width:2.0;" width="1402" x="20" y="416.6953"/><line style="stroke:#A80036;stroke-width:1.0;stroke-dasharray:5.0,5.0;" x1="61" x2="61" y1="40.2969" y2="1011.3516"/><line style="stroke:#A80036;stroke-width:1.0;stroke-dasharray:5.0,5.0;" x1="241" x2="241" y1="40.2969" y2="1011.3516"/><line style="stroke:#A80036;stroke-width:1.0;stroke-dasharray:5.0,5.0;" x1="423.5" x2="423.5" y1="40.2969" y2="1011.3516"/><line style="stroke:#A80036;stroke-width:1.0;stroke-dasharray:5.0,5.0;" x1="661.5" x2="661.5" y1="40.2969" y2="1011.3516"/><line style="stroke:#A80036;stroke-width:1.0;stroke-dasharray:5.0,5.0;" x1="904.5" x2="904.5" y1="40.2969" y2="1011.3516"/><line style="stroke:#A80036;stroke-width:1.0;stroke-dasharray:5.0,5.0;" x1="1056.5" x2="1056.5" y1="40.2969" y2="1011.3516"/><line style="stroke:#A80036;stroke-width:1.0;stroke-dasharray:5.0,5.0;" x1="1362" x2="1362" y1="40.2969" y2="1011.3516"/><rect fill="#FEFECE" filter="url(#f12edmttg3rv25)" height="30.2969" style="stroke:#A80036;stroke-width:1.5;" width="58" x="30" y="5"/><text fill="#000000" font-family="sans-serif" font-size="14" lengthAdjust="spacing" textLength="44" x="37" y="24.9951">Player</text><rect fill="#FEFECE" filter="url(#f12edmttg3rv25)" height="30.2969" style="stroke:#A80036;stroke-width:1.5;" width="58" x="30" y="1010.3516"/><text fill="#000000" font-family="sans-serif" font-size="14" lengthAdjust="spacing" textLength="44" x="37" y="1030.3467">Player</text><rect fill="#FEFECE" filter="url(#f12edmttg3rv25)" height="30.2969" style="stroke:#A80036;stroke-width:1.5;" width="36" x="221" y="5"/><text fill="#000000" font-family="sans-serif" font-size="14" lengthAdjust="spacing" textLength="22" x="228" y="24.9951">CLI</text><rect fill="#FEFECE" filter="url(#f12edmttg3rv25)" height="30.2969" style="stroke:#A80036;stroke-width:1.5;" width="36" x="221" y="1010.3516"/><text fill="#000000" font-family="sans-serif" font-size="14" lengthAdjust="spacing" textLength="22" x="228" y="1030.3467">CLI</text><rect fill="#FEFECE" filter="url(#f12edmttg3rv25)" height="30.2969" style="stroke:#A80036;stroke-width:1.5;" width="57" x="393.5" y="5"/><text fill="#000000" font-family="sans-serif" font-size="14" lengthAdjust="spacing" textLength="43" x="400.5" y="24.9951">Client</text><rect fill="#FEFECE" filter="url(#f12edmttg3rv25)" height="30.2969" style="stroke:#A80036;stroke-width:1.5;" width="57" x="393.5" y="1010.3516"/><text fill="#000000" font-family="sans-serif" font-size="14" lengthAdjust="spacing" textLength="43" x="400.5" y="1030.3467">Client</text><rect fill="#FEFECE" filter="url(#f12edmttg3rv25)" height="30.2969" style="stroke:#A80036;stroke-width:1.5;" width="61" x="629.5" y="5"/><text fill="#000000" font-family="sans-serif" font-size="14" lengthAdjust="spacing" textLength="47" x="636.5" y="24.9951">Server</text><rect fill="#FEFECE" filter="url(#f12edmttg3rv25)" height="30.2969" style="stroke:#A80036;stroke-width:1.5;" width="61" x="629.5" y="1010.3516"/><text fill="#000000" font-family="sans-serif" font-size="14" lengthAdjust="spacing" textLength="47" x="636.5" y="1030.3467">Server</text><rect fill="#FEFECE" filter="url(#f12edmttg3rv25)" height="30.2969" style="stroke:#A80036;stroke-width:1.5;" width="111" x="847.5" y="5"/><text fill="#000000" font-family="sans-serif" font-size="14" lengthAdjust="spacing" textLength="97" x="854.5" y="24.9951">GameHandler</text><rect fill="#FEFECE" filter="url(#f12edmttg3rv25)" height="30.2969" style="stroke:#A80036;stroke-width:1.5;" width="111" x="847.5" y="1010.3516"/><text fill="#000000" font-family="sans-serif" font-size="14" lengthAdjust="spacing" textLength="97" x="854.5" y="1030.3467">GameHandler</text><rect fill="#FEFECE" filter="url(#f12edmttg3rv25)" height="30.2969" style="stroke:#A80036;stroke-width:1.5;" width="87" x="1011.5" y="5"/><text fill="#000000" font-family="sans-serif" font-size="14" lengthAdjust="spacing" textLength="73" x="1018.5" y="24.9951">Controller</text><rect fill="#FEFECE" filter="url(#f12edmttg3rv25)" height="30.2969" style="stroke:#A80036;stroke-width:1.5;" width="87" x="1011.5" y="1010.3516"/><text fill="#000000" font-family="sans-serif" font-size="14" lengthAdjust="spacing" textLength="73" x="1018.5" y="1030.3467">Controller</text><rect fill="#FEFECE" filter="url(#f12edmttg3rv25)" height="30.2969" style="stroke:#A80036;stroke-width:1.5;" width="96" x="1312" y="5"/><text fill="#000000" font-family="sans-serif" font-size="14" lengthAdjust="spacing" textLength="82" x="1319" y="24.9951">GameTable</text><rect fill="#FEFECE" filter="url(#f12edmttg3rv25)" height="30.2969" style="stroke:#A80036;stroke-width:1.5;" width="96" x="1312" y="1010.3516"/><text fill="#000000" font-family="sans-serif" font-size="14" lengthAdjust="spacing" textLength="82" x="1319" y="1030.3467">GameTable</text><rect fill="#FFFFFF" filter="url(#f12edmttg3rv25)" height="635.5938" style="stroke:#A80036;stroke-width:1.0;" width="10" x="900" y="270.3594"/><rect fill="#FFFFFF" filter="url(#f12edmttg3rv25)" height="87.3984" style="stroke:#A80036;stroke-width:1.0;" width="10" x="1052" y="299.4922"/><rect fill="#FFFFFF" filter="url(#f12edmttg3rv25)" height="407.8594" style="stroke:#A80036;stroke-width:1.0;" width="10" x="1052" y="454.9609"/><rect fill="#FFFFFF" filter="url(#f12edmttg3rv25)" height="58.2656" style="stroke:#A80036;stroke-width:1.0;" width="10" x="1357" y="299.4922"/><rect fill="#FFFFFF" filter="url(#f12edmttg3rv25)" height="378.7266" style="stroke:#A80036;stroke-width:1.0;" width="10" x="1357" y="484.0938"/><polygon fill="#A80036" points="229,67.4297,239,71.4297,229,75.4297,233,71.4297" style="stroke:#A80036;stroke-width:1.0;"/><line style="stroke:#A80036;stroke-width:1.0;" x1="61" x2="235" y1="71.4297" y2="71.4297"/><text fill="#000000" font-family="sans-serif" font-size="13" lengthAdjust="spacing" textLength="56" x="68" y="66.3638">"market"</text><polygon fill="#A80036" points="72,96.5625,62,100.5625,72,104.5625,68,100.5625" style="stroke:#A80036;stroke-width:1.0;"/><line style="stroke:#A80036;stroke-width:1.0;" x1="66" x2="240" y1="100.5625" y2="100.5625"/><text fill="#000000" font-family="sans-serif" font-size="13" lengthAdjust="spacing" textLength="82" x="78" y="95.4966">printMarket()</text><polygon fill="#A80036" points="72,125.6953,62,129.6953,72,133.6953,68,129.6953" style="stroke:#A80036;stroke-width:1.0;"/><line style="stroke:#A80036;stroke-width:1.0;" x1="66" x2="240" y1="129.6953" y2="129.6953"/><text fill="#000000" font-family="sans-serif" font-size="13" lengthAdjust="spacing" textLength="118" x="78" y="124.6294">askMarketChoice()</text><polygon fill="#A80036" points="229,154.8281,239,158.8281,229,162.8281,233,158.8281" style="stroke:#A80036;stroke-width:1.0;"/><line style="stroke:#A80036;stroke-width:1.0;" x1="61" x2="235" y1="158.8281" y2="158.8281"/><text fill="#000000" font-family="sans-serif" font-size="13" lengthAdjust="spacing" textLength="140" x="68" y="153.7622">Row/Column, Number</text><polygon fill="#A80036" points="412,183.9609,422,187.9609,412,191.9609,416,187.9609" style="stroke:#A80036;stroke-width:1.0;"/><line style="stroke:#A80036;stroke-width:1.0;" x1="241" x2="418" y1="187.9609" y2="187.9609"/><text fill="#000000" font-family="sans-serif" font-size="13" lengthAdjust="spacing" textLength="127" x="248" y="182.895">sendMarketChoice()</text><polygon fill="#A80036" points="650,213.0938,660,217.0938,650,221.0938,654,217.0938" style="stroke:#A80036;stroke-width:1.0;"/><line style="stroke:#A80036;stroke-width:1.0;" x1="424" x2="656" y1="217.0938" y2="217.0938"/><text fill="#000000" font-family="sans-serif" font-size="13" lengthAdjust="spacing" textLength="77" x="431" y="212.0278">UseMarket()</text><path d="M10,232.0938 L76,232.0938 L76,239.0938 L66,249.0938 L10,249.0938 L10,232.0938 " fill="#EEEEEE" style="stroke:#000000;stroke-width:1.0;"/><rect fill="none" height="645.7266" style="stroke:#000000;stroke-width:2.0;" width="1422" x="10" y="232.0938"/><text fill="#000000" font-family="sans-serif" font-size="13" font-weight="bold" lengthAdjust="spacing" textLength="21" x="25" y="245.1606">alt</text><text fill="#000000" font-family="sans-serif" font-size="11" font-weight="bold" lengthAdjust="spacing" textLength="172" x="91" y="244.3042">[tryAddMarbles() == true]</text><polygon fill="#A80036" points="888,266.3594,898,270.3594,888,274.3594,892,270.3594" style="stroke:#A80036;stroke-width:1.0;"/><line style="stroke:#A80036;stroke-width:1.0;" x1="662" x2="894" y1="270.3594" y2="270.3594"/><text fill="#000000" font-family="sans-serif" font-size="13" lengthAdjust="spacing" textLength="86" x="669" y="265.2935">makeAction()</text><polygon fill="#A80036" points="1040,295.4922,1050,299.4922,1040,303.4922,1044,299.4922" style="stroke:#A80036;stroke-width:1.0;"/><line style="stroke:#A80036;stroke-width:1.0;" x1="910" x2="1046" y1="299.4922" y2="299.4922"/><text fill="#000000" font-family="sans-serif" font-size="13" lengthAdjust="spacing" textLength="86" x="917" y="294.4263">makeAction()</text><polygon fill="#A80036" points="1345,324.625,1355,328.625,1345,332.625,1349,328.625" style="stroke:#A80036;stroke-width:1.0;"/><line style="stroke:#A80036;stroke-width:1.0;" x1="1062" x2="1351" y1="328.625" y2="328.625"/><text fill="#000000" font-family="sans-serif" font-size="13" lengthAdjust="spacing" textLength="102" x="1069" y="323.5591">tryAddMarbles()</text><polygon fill="#A80036" points="1073,353.7578,1063,357.7578,1073,361.7578,1069,357.7578" style="stroke:#A80036;stroke-width:1.0;"/><line style="stroke:#A80036;stroke-width:1.0;" x1="1067" x2="1361" y1="357.7578" y2="357.7578"/><text fill="#000000" font-family="sans-serif" font-size="13" lengthAdjust="spacing" textLength="26" x="1079" y="352.6919">true</text><polygon fill="#A80036" points="921,382.8906,911,386.8906,921,390.8906,917,386.8906" style="stroke:#A80036;stroke-width:1.0;"/><line style="stroke:#A80036;stroke-width:1.0;" x1="915" x2="1056" y1="386.8906" y2="386.8906"/><text fill="#000000" font-family="sans-serif" font-size="13" lengthAdjust="spacing" textLength="26" x="927" y="381.8247">true</text><line style="stroke:#000000;stroke-width:1.0;stroke-dasharray:2.0,2.0;" x1="10" x2="1432" y1="395.8906" y2="395.8906"/><text fill="#000000" font-family="sans-serif" font-size="11" font-weight="bold" lengthAdjust="spacing" textLength="125" x="15" y="406.1011">[tryAdd() == false]</text><path d="M20,416.6953 L98,416.6953 L98,423.6953 L88,433.6953 L20,433.6953 L20,416.6953 " fill="#EEEEEE" style="stroke:#000000;stroke-width:1.0;"/><rect fill="none" height="454.125" style="stroke:#000000;stroke-width:2.0;" width="1402" x="20" y="416.6953"/><text fill="#000000" font-family="sans-serif" font-size="13" font-weight="bold" lengthAdjust="spacing" textLength="33" x="35" y="429.7622">loop</text><text fill="#000000" font-family="sans-serif" font-size="11" font-weight="bold" lengthAdjust="spacing" textLength="155" x="113" y="428.9058">[until tryAdd() == true]</text><polygon fill="#A80036" points="888,450.9609,898,454.9609,888,458.9609,892,454.9609" style="stroke:#A80036;stroke-width:1.0;"/><line style="stroke:#A80036;stroke-width:1.0;" x1="662" x2="894" y1="454.9609" y2="454.9609"/><text fill="#000000" font-family="sans-serif" font-size="13" lengthAdjust="spacing" textLength="86" x="669" y="449.895">makeAction()</text><polygon fill="#A80036" points="1040,480.0938,1050,484.0938,1040,488.0938,1044,484.0938" style="stroke:#A80036;stroke-width:1.0;"/><line style="stroke:#A80036;stroke-width:1.0;" x1="910" x2="1046" y1="484.0938" y2="484.0938"/><text fill="#000000" font-family="sans-serif" font-size="13" lengthAdjust="spacing" textLength="86" x="917" y="479.0278">makeAction()</text><polygon fill="#A80036" points="1345,509.2266,1355,513.2266,1345,517.2266,1349,513.2266" style="stroke:#A80036;stroke-width:1.0;"/><line style="stroke:#A80036;stroke-width:1.0;" x1="1062" x2="1351" y1="513.2266" y2="513.2266"/><text fill="#000000" font-family="sans-serif" font-size="13" lengthAdjust="spacing" textLength="102" x="1069" y="508.1606">tryAddMarbles()</text><polygon fill="#A80036" points="1073,538.3594,1063,542.3594,1073,546.3594,1069,542.3594" style="stroke:#A80036;stroke-width:1.0;"/><line style="stroke:#A80036;stroke-width:1.0;" x1="1067" x2="1356" y1="542.3594" y2="542.3594"/><text fill="#000000" font-family="sans-serif" font-size="13" lengthAdjust="spacing" textLength="31" x="1079" y="537.2935">false</text><polygon fill="#A80036" points="921,567.4922,911,571.4922,921,575.4922,917,571.4922" style="stroke:#A80036;stroke-width:1.0;"/><line style="stroke:#A80036;stroke-width:1.0;" x1="915" x2="1051" y1="571.4922" y2="571.4922"/><text fill="#000000" font-family="sans-serif" font-size="13" lengthAdjust="spacing" textLength="31" x="927" y="566.4263">false</text><polygon fill="#A80036" points="673,596.625,663,600.625,673,604.625,669,600.625" style="stroke:#A80036;stroke-width:1.0;"/><line style="stroke:#A80036;stroke-width:1.0;" x1="667" x2="899" y1="600.625" y2="600.625"/><text fill="#000000" font-family="sans-serif" font-size="13" lengthAdjust="spacing" textLength="214" x="679" y="595.5591">RequestDiscardResourceMarket()</text><polygon fill="#A80036" points="435,625.7578,425,629.7578,435,633.7578,431,629.7578" style="stroke:#A80036;stroke-width:1.0;"/><line style="stroke:#A80036;stroke-width:1.0;" x1="429" x2="661" y1="629.7578" y2="629.7578"/><text fill="#000000" font-family="sans-serif" font-size="13" lengthAdjust="spacing" textLength="214" x="441" y="624.6919">RequestDiscardResourceMarket()</text><polygon fill="#A80036" points="252,654.8906,242,658.8906,252,662.8906,248,658.8906" style="stroke:#A80036;stroke-width:1.0;"/><line style="stroke:#A80036;stroke-width:1.0;" x1="246" x2="423" y1="658.8906" y2="658.8906"/><text fill="#000000" font-family="sans-serif" font-size="13" lengthAdjust="spacing" textLength="156" x="258" y="653.8247">askResourceToDiscard()</text><polygon fill="#A80036" points="72,684.0234,62,688.0234,72,692.0234,68,688.0234" style="stroke:#A80036;stroke-width:1.0;"/><line style="stroke:#A80036;stroke-width:1.0;" x1="66" x2="240" y1="688.0234" y2="688.0234"/><text fill="#000000" font-family="sans-serif" font-size="13" lengthAdjust="spacing" textLength="156" x="78" y="682.9575">askResourceToDiscard()</text><polygon fill="#A80036" points="229,713.1563,239,717.1563,229,721.1563,233,717.1563" style="stroke:#A80036;stroke-width:1.0;"/><line style="stroke:#A80036;stroke-width:1.0;" x1="61" x2="235" y1="717.1563" y2="717.1563"/><text fill="#000000" font-family="sans-serif" font-size="13" lengthAdjust="spacing" textLength="60" x="68" y="712.0903">Resource</text><polygon fill="#A80036" points="412,742.2891,422,746.2891,412,750.2891,416,746.2891" style="stroke:#A80036;stroke-width:1.0;"/><line style="stroke:#A80036;stroke-width:1.0;" x1="241" x2="418" y1="746.2891" y2="746.2891"/><text fill="#000000" font-family="sans-serif" font-size="13" lengthAdjust="spacing" textLength="159" x="248" y="741.2231">sendResourceSelection()</text><polygon fill="#A80036" points="650,771.4219,660,775.4219,650,779.4219,654,775.4219" style="stroke:#A80036;stroke-width:1.0;"/><line style="stroke:#A80036;stroke-width:1.0;" x1="424" x2="656" y1="775.4219" y2="775.4219"/><text fill="#000000" font-family="sans-serif" font-size="13" lengthAdjust="spacing" textLength="161" x="431" y="770.356">DiscardResourceMarket()</text><polygon fill="#A80036" points="888,800.5547,898,804.5547,888,808.5547,892,804.5547" style="stroke:#A80036;stroke-width:1.0;"/><line style="stroke:#A80036;stroke-width:1.0;" x1="662" x2="894" y1="804.5547" y2="804.5547"/><text fill="#000000" font-family="sans-serif" font-size="13" lengthAdjust="spacing" textLength="118" x="669" y="799.4888">DiscardResource()</text><polygon fill="#A80036" points="1040,829.6875,1050,833.6875,1040,837.6875,1044,833.6875" style="stroke:#A80036;stroke-width:1.0;"/><line style="stroke:#A80036;stroke-width:1.0;" x1="910" x2="1046" y1="833.6875" y2="833.6875"/><text fill="#000000" font-family="sans-serif" font-size="13" lengthAdjust="spacing" textLength="118" x="917" y="828.6216">DiscardResource()</text><polygon fill="#A80036" points="1350,858.8203,1360,862.8203,1350,866.8203,1354,862.8203" style="stroke:#A80036;stroke-width:1.0;"/><line style="stroke:#A80036;stroke-width:1.0;" x1="1057" x2="1356" y1="862.8203" y2="862.8203"/><text fill="#000000" font-family="sans-serif" font-size="13" lengthAdjust="spacing" textLength="271" x="1064" y="857.7544">DiscardResourceFromTemporaryDeposit()</text><polygon fill="#A80036" points="673,901.9531,663,905.9531,673,909.9531,669,905.9531" style="stroke:#A80036;stroke-width:1.0;"/><line style="stroke:#A80036;stroke-width:1.0;stroke-dasharray:2.0,2.0;" x1="667" x2="904" y1="905.9531" y2="905.9531"/><text fill="#000000" font-family="sans-serif" font-size="13" lengthAdjust="spacing" textLength="125" x="679" y="900.8872">AnswerUseMarket()</text><polygon fill="#A80036" points="435,931.0859,425,935.0859,435,939.0859,431,935.0859" style="stroke:#A80036;stroke-width:1.0;"/><line style="stroke:#A80036;stroke-width:1.0;stroke-dasharray:2.0,2.0;" x1="429" x2="661" y1="935.0859" y2="935.0859"/><text fill="#000000" font-family="sans-serif" font-size="13" lengthAdjust="spacing" textLength="125" x="441" y="930.02">AnswerUseMarket()</text><polygon fill="#A80036" points="252,960.2188,242,964.2188,252,968.2188,248,964.2188" style="stroke:#A80036;stroke-width:1.0;"/><line style="stroke:#A80036;stroke-width:1.0;stroke-dasharray:2.0,2.0;" x1="246" x2="423" y1="964.2188" y2="964.2188"/><text fill="#000000" font-family="sans-serif" font-size="13" lengthAdjust="spacing" textLength="61" x="258" y="959.1528">success()</text><polygon fill="#A80036" points="72,989.3516,62,993.3516,72,997.3516,68,993.3516" style="stroke:#A80036;stroke-width:1.0;"/><line style="stroke:#A80036;stroke-width:1.0;stroke-dasharray:2.0,2.0;" x1="66" x2="240" y1="993.3516" y2="993.3516"/><text fill="#000000" font-family="sans-serif" font-size="13" lengthAdjust="spacing" textLength="107" x="78" y="988.2856">displaySuccess()</text><!--MD5=[5f450db1c9e8a3bfcbbd47a78b704721]
@startuml
Player -> CLI: "market"
Player <- CLI: printMarket()
Player <- CLI: askMarketChoice()
Player -> CLI: Row/Column, Number
CLI -> Client: sendMarketChoice()

Client-> Server: UseMarket()



alt tryAddMarbles() == true
            Server-> GameHandler: makeAction()
             activate GameHandler

            GameHandler-> Controller: makeAction()
            activate Controller 
            activate GameTable
            Controller-> GameTable: tryAddMarbles()
            Controller<- GameTable: true
            deactivate GameTable
            Controller -> GameHandler: true
            deactivate Controller
            

else tryAdd() == false
        loop until tryAdd() == true
            Server-> GameHandler: makeAction()

            activate Controller
            GameHandler-> Controller: makeAction()
            
            activate GameTable
            Controller-> GameTable: tryAddMarbles()
            Controller<- GameTable: false
                       
      
            Controller -> GameHandler: false

            GameHandler->Server: RequestDiscardResourceMarket()
            Client<- Server: RequestDiscardResourceMarket()
            CLI<-Client: askResourceToDiscard()
            Player <- CLI: askResourceToDiscard()
            Player -> CLI: Resource
            CLI->Client: sendResourceSelection()
            
            

            

            Client-> Server: DiscardResourceMarket()

            Server-> GameHandler: DiscardResource()


            GameHandler-> Controller: DiscardResource()


            Controller-> GameTable: DiscardResourceFromTemporaryDeposit()
            deactivate GameTable
            deactivate Controller


        end
end
Server<- - GameHandler: AnswerUseMarket()

deactivate GameHandler

Client<- - Server: AnswerUseMarket()

CLI <- - Client: success()

Player <- - CLI: displaySuccess()
@enduml

PlantUML version 1.2021.6beta6(Unknown compile time)
(GPL source distribution)
Java Runtime: Java(TM) SE Runtime Environment
JVM: Java HotSpot(TM) 64-Bit Server VM
Default Encoding: UTF-8
Language: en
Country: US
--></g></svg>
