<?xml version="1.0" encoding="UTF-8" standalone="no"?>
<svg xmlns="http://www.w3.org/2000/svg" xmlns:xlink="http://www.w3.org/1999/xlink" contentScriptType="application/ecmascript" contentStyleType="text/css" height="326px" preserveAspectRatio="none" style="width:365px;height:326px;" version="1.1" viewBox="0 0 365 326" width="365px" zoomAndPan="magnify"><defs><filter height="300%" id="fhcwwgayz7qal" width="300%" x="-1" y="-1"><feGaussianBlur result="blurOut" stdDeviation="2.0"/><feColorMatrix in="blurOut" result="blurOut2" type="matrix" values="0 0 0 0 0 0 0 0 0 0 0 0 0 0 0 0 0 0 .4 0"/><feOffset dx="4.0" dy="4.0" in="blurOut2" result="blurOut3"/><feBlend in="SourceGraphic" in2="blurOut3" mode="normal"/></filter></defs><g><rect fill="#FFFFFF" filter="url(#fhcwwgayz7qal)" height="179.6016" style="stroke:#000000;stroke-width:2.0;" width="341" x="10" y="86.4297"/><rect fill="#FFFFFF" height="133.3359" style="stroke:none;stroke-width:1.0;" width="341" x="10" y="132.6953"/><rect fill="#FFFFFF" filter="url(#fhcwwgayz7qal)" height="75.3984" style="stroke:#000000;stroke-width:2.0;" width="321" x="20" y="154.5"/><line style="stroke:#A80036;stroke-width:1.0;stroke-dasharray:5.0,5.0;" x1="60" x2="60" y1="40.2969" y2="283.0313"/><line style="stroke:#A80036;stroke-width:1.0;stroke-dasharray:5.0,5.0;" x1="298" x2="298" y1="40.2969" y2="283.0313"/><rect fill="#FEFECE" filter="url(#fhcwwgayz7qal)" height="30.2969" style="stroke:#A80036;stroke-width:1.5;" width="57" x="30" y="5"/><text fill="#000000" font-family="sans-serif" font-size="14" lengthAdjust="spacing" textLength="43" x="37" y="24.9951">Client</text><rect fill="#FEFECE" filter="url(#fhcwwgayz7qal)" height="30.2969" style="stroke:#A80036;stroke-width:1.5;" width="57" x="30" y="282.0313"/><text fill="#000000" font-family="sans-serif" font-size="14" lengthAdjust="spacing" textLength="43" x="37" y="302.0264">Client</text><rect fill="#FEFECE" filter="url(#fhcwwgayz7qal)" height="30.2969" style="stroke:#A80036;stroke-width:1.5;" width="61" x="266" y="5"/><text fill="#000000" font-family="sans-serif" font-size="14" lengthAdjust="spacing" textLength="47" x="273" y="24.9951">Server</text><rect fill="#FEFECE" filter="url(#fhcwwgayz7qal)" height="30.2969" style="stroke:#A80036;stroke-width:1.5;" width="61" x="266" y="282.0313"/><text fill="#000000" font-family="sans-serif" font-size="14" lengthAdjust="spacing" textLength="47" x="273" y="302.0264">Server</text><polygon fill="#A80036" points="286.5,67.4297,296.5,71.4297,286.5,75.4297,290.5,71.4297" style="stroke:#A80036;stroke-width:1.0;"/><line style="stroke:#A80036;stroke-width:1.0;" x1="60.5" x2="292.5" y1="71.4297" y2="71.4297"/><text fill="#000000" font-family="sans-serif" font-size="13" lengthAdjust="spacing" textLength="77" x="67.5" y="66.3638">UseMarket()</text><path d="M10,86.4297 L76,86.4297 L76,93.4297 L66,103.4297 L10,103.4297 L10,86.4297 " fill="#EEEEEE" style="stroke:#000000;stroke-width:1.0;"/><rect fill="none" height="179.6016" style="stroke:#000000;stroke-width:2.0;" width="341" x="10" y="86.4297"/><text fill="#000000" font-family="sans-serif" font-size="13" font-weight="bold" lengthAdjust="spacing" textLength="21" x="25" y="99.4966">alt</text><text fill="#000000" font-family="sans-serif" font-size="11" font-weight="bold" lengthAdjust="spacing" textLength="136" x="91" y="98.6401">[can add to deposit]</text><polygon fill="#A80036" points="71.5,120.6953,61.5,124.6953,71.5,128.6953,67.5,124.6953" style="stroke:#A80036;stroke-width:1.0;"/><line style="stroke:#A80036;stroke-width:1.0;" x1="65.5" x2="297.5" y1="124.6953" y2="124.6953"/><text fill="#000000" font-family="sans-serif" font-size="13" lengthAdjust="spacing" textLength="125" x="77.5" y="119.6294">AnswerUseMarket()</text><line style="stroke:#000000;stroke-width:1.0;stroke-dasharray:2.0,2.0;" x1="10" x2="351" y1="133.6953" y2="133.6953"/><text fill="#000000" font-family="sans-serif" font-size="11" font-weight="bold" lengthAdjust="spacing" textLength="146" x="15" y="143.9058">[can't add to deposit]</text><path d="M20,154.5 L98,154.5 L98,161.5 L88,171.5 L20,171.5 L20,154.5 " fill="#EEEEEE" style="stroke:#000000;stroke-width:1.0;"/><rect fill="none" height="75.3984" style="stroke:#000000;stroke-width:2.0;" width="321" x="20" y="154.5"/><text fill="#000000" font-family="sans-serif" font-size="13" font-weight="bold" lengthAdjust="spacing" textLength="33" x="35" y="167.5669">loop</text><text fill="#000000" font-family="sans-serif" font-size="11" font-weight="bold" lengthAdjust="spacing" textLength="171" x="113" y="166.7104">[until can add to deposit]</text><polygon fill="#A80036" points="71.5,188.7656,61.5,192.7656,71.5,196.7656,67.5,192.7656" style="stroke:#A80036;stroke-width:1.0;"/><line style="stroke:#A80036;stroke-width:1.0;" x1="65.5" x2="297.5" y1="192.7656" y2="192.7656"/><text fill="#000000" font-family="sans-serif" font-size="13" lengthAdjust="spacing" textLength="214" x="77.5" y="187.6997">RequestDiscardResourceMarket()</text><polygon fill="#A80036" points="286.5,217.8984,296.5,221.8984,286.5,225.8984,290.5,221.8984" style="stroke:#A80036;stroke-width:1.0;"/><line style="stroke:#A80036;stroke-width:1.0;" x1="60.5" x2="292.5" y1="221.8984" y2="221.8984"/><text fill="#000000" font-family="sans-serif" font-size="13" lengthAdjust="spacing" textLength="161" x="67.5" y="216.8325">DiscardResourceMarket()</text><polygon fill="#A80036" points="71.5,254.0313,61.5,258.0313,71.5,262.0313,67.5,258.0313" style="stroke:#A80036;stroke-width:1.0;"/><line style="stroke:#A80036;stroke-width:1.0;" x1="65.5" x2="297.5" y1="258.0313" y2="258.0313"/><text fill="#000000" font-family="sans-serif" font-size="13" lengthAdjust="spacing" textLength="125" x="77.5" y="252.9653">AnswerUseMarket()</text><!--MD5=[887d5cb9252e0f7e9be01900fa91c7bc]
@startuml
Client-> Server: UseMarket()
alt can add to deposit
    Client<- Server: AnswerUseMarket()  
else can't add to deposit
        loop until can add to deposit
            Client<- Server: RequestDiscardResourceMarket()
            Client-> Server: DiscardResourceMarket()
        end
    Client<- Server: AnswerUseMarket()  
end
@enduml

PlantUML version 1.2021.5beta3(Unknown compile time)
(GPL source distribution)
Java Runtime: Java(TM) SE Runtime Environment
JVM: Java HotSpot(TM) 64-Bit Server VM
Default Encoding: UTF-8
Language: en
Country: US
--></g></svg>