<?xml version="1.0" encoding="UTF-8" standalone="no"?>
<svg xmlns="http://www.w3.org/2000/svg" xmlns:xlink="http://www.w3.org/1999/xlink" contentScriptType="application/ecmascript" contentStyleType="text/css" height="446px" preserveAspectRatio="none" style="width:351px;height:446px;background:#FFFFFF;" version="1.1" viewBox="0 0 351 446" width="351px" zoomAndPan="magnify"><defs><filter height="300%" id="fp2qbff5gat2m" width="300%" x="-1" y="-1"><feGaussianBlur result="blurOut" stdDeviation="2.0"/><feColorMatrix in="blurOut" result="blurOut2" type="matrix" values="0 0 0 0 0 0 0 0 0 0 0 0 0 0 0 0 0 0 .4 0"/><feOffset dx="4.0" dy="4.0" in="blurOut2" result="blurOut3"/><feBlend in="SourceGraphic" in2="blurOut3" mode="normal"/></filter></defs><g><rect fill="#FFFFFF" filter="url(#fp2qbff5gat2m)" height="46.2656" style="stroke:#000000;stroke-width:2.0;" width="307" x="20" y="115.5625"/><rect fill="#FFFFFF" filter="url(#fp2qbff5gat2m)" height="150.4688" style="stroke:#000000;stroke-width:2.0;" width="327" x="10" y="175.8281"/><rect fill="#FFFFFF" filter="url(#fp2qbff5gat2m)" height="90.2031" style="stroke:#000000;stroke-width:2.0;" width="307" x="20" y="229.0938"/><rect fill="#FFFFFF" height="43.9375" style="stroke:none;stroke-width:1.0;" width="307" x="20" y="275.3594"/><rect fill="#FFFFFF" filter="url(#fp2qbff5gat2m)" height="46.2656" style="stroke:#000000;stroke-width:2.0;" width="307" x="20" y="340.2969"/><line style="stroke:#A80036;stroke-width:1.0;stroke-dasharray:5.0,5.0;" x1="60" x2="60" y1="40.2969" y2="403.5625"/><line style="stroke:#A80036;stroke-width:1.0;stroke-dasharray:5.0,5.0;" x1="284" x2="284" y1="40.2969" y2="403.5625"/><rect fill="#FEFECE" filter="url(#fp2qbff5gat2m)" height="30.2969" style="stroke:#A80036;stroke-width:1.5;" width="57" x="30" y="5"/><text fill="#000000" font-family="sans-serif" font-size="14" lengthAdjust="spacing" textLength="43" x="37" y="24.9951">Client</text><rect fill="#FEFECE" filter="url(#fp2qbff5gat2m)" height="30.2969" style="stroke:#A80036;stroke-width:1.5;" width="57" x="30" y="402.5625"/><text fill="#000000" font-family="sans-serif" font-size="14" lengthAdjust="spacing" textLength="43" x="37" y="422.5576">Client</text><rect fill="#FEFECE" filter="url(#fp2qbff5gat2m)" height="30.2969" style="stroke:#A80036;stroke-width:1.5;" width="61" x="252" y="5"/><text fill="#000000" font-family="sans-serif" font-size="14" lengthAdjust="spacing" textLength="47" x="259" y="24.9951">Server</text><rect fill="#FEFECE" filter="url(#fp2qbff5gat2m)" height="30.2969" style="stroke:#A80036;stroke-width:1.5;" width="61" x="252" y="402.5625"/><text fill="#000000" font-family="sans-serif" font-size="14" lengthAdjust="spacing" textLength="47" x="259" y="422.5576">Server</text><polygon fill="#A80036" points="272.5,67.4297,282.5,71.4297,272.5,75.4297,276.5,71.4297" style="stroke:#A80036;stroke-width:1.0;"/><line style="stroke:#A80036;stroke-width:1.0;" x1="60.5" x2="278.5" y1="71.4297" y2="71.4297"/><text fill="#000000" font-family="sans-serif" font-size="13" lengthAdjust="spacing" textLength="109" x="67.5" y="66.3638">SetupConnection</text><polygon fill="#A80036" points="71.5,96.5625,61.5,100.5625,71.5,104.5625,67.5,100.5625" style="stroke:#A80036;stroke-width:1.0;"/><line style="stroke:#A80036;stroke-width:1.0;" x1="65.5" x2="283.5" y1="100.5625" y2="100.5625"/><text fill="#000000" font-family="sans-serif" font-size="13" lengthAdjust="spacing" textLength="159" x="77.5" y="95.4966">ResponseClientAccepted</text><path d="M20,115.5625 L86,115.5625 L86,122.5625 L76,132.5625 L20,132.5625 L20,115.5625 " fill="#EEEEEE" style="stroke:#000000;stroke-width:1.0;"/><rect fill="none" height="46.2656" style="stroke:#000000;stroke-width:2.0;" width="307" x="20" y="115.5625"/><text fill="#000000" font-family="sans-serif" font-size="13" font-weight="bold" lengthAdjust="spacing" textLength="21" x="35" y="128.6294">alt</text><text fill="#000000" font-family="sans-serif" font-size="11" font-weight="bold" lengthAdjust="spacing" textLength="163" x="101" y="127.7729">[nickname not available]</text><polygon fill="#A80036" points="71.5,149.8281,61.5,153.8281,71.5,157.8281,67.5,153.8281" style="stroke:#A80036;stroke-width:1.0;"/><line style="stroke:#A80036;stroke-width:1.0;" x1="65.5" x2="283.5" y1="153.8281" y2="153.8281"/><text fill="#000000" font-family="sans-serif" font-size="13" lengthAdjust="spacing" textLength="200" x="77.5" y="148.7622">ResponseNicknameUnavailable</text><path d="M10,175.8281 L76,175.8281 L76,182.8281 L66,192.8281 L10,192.8281 L10,175.8281 " fill="#EEEEEE" style="stroke:#000000;stroke-width:1.0;"/><rect fill="none" height="150.4688" style="stroke:#000000;stroke-width:2.0;" width="327" x="10" y="175.8281"/><text fill="#000000" font-family="sans-serif" font-size="13" font-weight="bold" lengthAdjust="spacing" textLength="21" x="25" y="188.895">alt</text><text fill="#000000" font-family="sans-serif" font-size="11" font-weight="bold" lengthAdjust="spacing" textLength="86" x="91" y="188.0386">[first player]</text><polygon fill="#A80036" points="71.5,210.0938,61.5,214.0938,71.5,218.0938,67.5,214.0938" style="stroke:#A80036;stroke-width:1.0;"/><line style="stroke:#A80036;stroke-width:1.0;" x1="65.5" x2="283.5" y1="214.0938" y2="214.0938"/><text fill="#000000" font-family="sans-serif" font-size="13" lengthAdjust="spacing" textLength="151" x="77.5" y="209.0278">RequestPlayersNumber</text><path d="M20,229.0938 L86,229.0938 L86,236.0938 L76,246.0938 L20,246.0938 L20,229.0938 " fill="#EEEEEE" style="stroke:#000000;stroke-width:1.0;"/><rect fill="none" height="90.2031" style="stroke:#000000;stroke-width:2.0;" width="307" x="20" y="229.0938"/><text fill="#000000" font-family="sans-serif" font-size="13" font-weight="bold" lengthAdjust="spacing" textLength="21" x="35" y="242.1606">alt</text><text fill="#000000" font-family="sans-serif" font-size="11" font-weight="bold" lengthAdjust="spacing" textLength="165" x="101" y="241.3042">[timeout is not reached]</text><polygon fill="#A80036" points="272.5,263.3594,282.5,267.3594,272.5,271.3594,276.5,267.3594" style="stroke:#A80036;stroke-width:1.0;"/><line style="stroke:#A80036;stroke-width:1.0;" x1="60.5" x2="278.5" y1="267.3594" y2="267.3594"/><text fill="#000000" font-family="sans-serif" font-size="13" lengthAdjust="spacing" textLength="161" x="67.5" y="262.2935">ResponsePlayersNumber</text><line style="stroke:#000000;stroke-width:1.0;stroke-dasharray:2.0,2.0;" x1="20" x2="327" y1="276.3594" y2="276.3594"/><text fill="#000000" font-family="sans-serif" font-size="11" font-weight="bold" lengthAdjust="spacing" textLength="77" x="25" y="286.5698">[timed out]</text><polygon fill="#A80036" points="71.5,307.2969,61.5,311.2969,71.5,315.2969,67.5,311.2969" style="stroke:#A80036;stroke-width:1.0;"/><line style="stroke:#A80036;stroke-width:1.0;" x1="65.5" x2="283.5" y1="311.2969" y2="311.2969"/><text fill="#000000" font-family="sans-serif" font-size="13" lengthAdjust="spacing" textLength="145" x="77.5" y="306.231">KillConnectionMessage</text><line style="stroke:#A80036;stroke-width:2.0;" x1="51.5" x2="69.5" y1="302.2969" y2="320.2969"/><line style="stroke:#A80036;stroke-width:2.0;" x1="51.5" x2="69.5" y1="320.2969" y2="302.2969"/><path d="M20,340.2969 L134,340.2969 L134,347.2969 L124,357.2969 L20,357.2969 L20,340.2969 " fill="#EEEEEE" style="stroke:#000000;stroke-width:1.0;"/><rect fill="none" height="46.2656" style="stroke:#000000;stroke-width:2.0;" width="307" x="20" y="340.2969"/><text fill="#000000" font-family="sans-serif" font-size="13" font-weight="bold" lengthAdjust="spacing" textLength="69" x="35" y="353.3638">lobby full</text><polygon fill="#A80036" points="71.5,374.5625,61.5,378.5625,71.5,382.5625,67.5,378.5625" style="stroke:#A80036;stroke-width:1.0;"/><line style="stroke:#A80036;stroke-width:1.0;" x1="65.5" x2="283.5" y1="378.5625" y2="378.5625"/><text fill="#000000" font-family="sans-serif" font-size="13" lengthAdjust="spacing" textLength="110" x="77.5" y="373.4966">GameHasStarted</text><!--MD5=[3523640b67c59e5c1349192c1acb8ff0]
@startuml
Client-> Server: SetupConnection
Client<- Server: ResponseClientAccepted
alt nickname not available
    Client<- Server: ResponseNicknameUnavailable
end
alt first player

    Client<- Server: RequestPlayersNumber
deactivate Client
alt timeout is not reached
    Client-> Server: ResponsePlayersNumber
else timed out
    Client<- Server: KillConnectionMessage
destroy Client
end
activate Client
end
group lobby full

    Client <- Server: GameHasStarted

end
@enduml

PlantUML version 1.2021.8beta3(Unknown compile time)
(GPL source distribution)
Java Runtime: Java(TM) SE Runtime Environment
JVM: Java HotSpot(TM) 64-Bit Server VM
Default Encoding: UTF-8
Language: en
Country: US
--></g></svg>