<?xml version="1.0" encoding="UTF-8" standalone="no"?><svg xmlns="http://www.w3.org/2000/svg" xmlns:xlink="http://www.w3.org/1999/xlink" contentScriptType="application/ecmascript" contentStyleType="text/css" height="909px" preserveAspectRatio="none" style="width:1382px;height:909px;background:#FFFFFF;" version="1.1" viewBox="0 0 1382 909" width="1382px" zoomAndPan="magnify"><defs><filter height="300%" id="f1p53cne67t6ev" width="300%" x="-1" y="-1"><feGaussianBlur result="blurOut" stdDeviation="2.0"/><feColorMatrix in="blurOut" result="blurOut2" type="matrix" values="0 0 0 0 0 0 0 0 0 0 0 0 0 0 0 0 0 0 .4 0"/><feOffset dx="4.0" dy="4.0" in="blurOut2" result="blurOut3"/><feBlend in="SourceGraphic" in2="blurOut3" mode="normal"/></filter></defs><g><rect fill="#FFFFFF" filter="url(#f1p53cne67t6ev)" height="323.4839" style="stroke:#000000;stroke-width:2.0;" width="1073.5" x="10" y="484.2599"/><rect fill="#FFFFFF" height="160.5779" style="stroke:none;stroke-width:1.0;" width="1073.5" x="10" y="647.1659"/><line style="stroke:#A80036;stroke-width:1.0;stroke-dasharray:5.0,5.0;" x1="45" x2="45" y1="88.2969" y2="824.7438"/><line style="stroke:#A80036;stroke-width:1.0;stroke-dasharray:5.0,5.0;" x1="211" x2="211" y1="88.2969" y2="824.7438"/><line style="stroke:#A80036;stroke-width:1.0;stroke-dasharray:5.0,5.0;" x1="407.5" x2="407.5" y1="88.2969" y2="824.7438"/><line style="stroke:#A80036;stroke-width:1.0;stroke-dasharray:5.0,5.0;" x1="618.5" x2="618.5" y1="88.2969" y2="824.7438"/><line style="stroke:#A80036;stroke-width:1.0;stroke-dasharray:5.0,5.0;" x1="823.5" x2="823.5" y1="88.2969" y2="824.7438"/><line style="stroke:#A80036;stroke-width:1.0;stroke-dasharray:5.0,5.0;" x1="1028.5" x2="1028.5" y1="88.2969" y2="824.7438"/><line style="stroke:#A80036;stroke-width:1.0;stroke-dasharray:5.0,5.0;" x1="1190" x2="1190" y1="88.2969" y2="824.7438"/><line style="stroke:#A80036;stroke-width:1.0;stroke-dasharray:5.0,5.0;" x1="1319" x2="1319" y1="88.2969" y2="824.7438"/><text fill="#000000" font-family="sans-serif" font-size="14" lengthAdjust="spacing" textLength="44" x="20" y="84.9951">Player</text><ellipse cx="45" cy="15" fill="#FEFECE" filter="url(#f1p53cne67t6ev)" rx="8" ry="8" style="stroke:#A80036;stroke-width:2.0;"/><path d="M45,23 L45,50 M32,31 L58,31 M45,50 L32,65 M45,50 L58,65 " fill="none" filter="url(#f1p53cne67t6ev)" style="stroke:#A80036;stroke-width:2.0;"/><text fill="#000000" font-family="sans-serif" font-size="14" lengthAdjust="spacing" textLength="44" x="20" y="836.7389">Player</text><ellipse cx="45" cy="850.0406" fill="#FEFECE" filter="url(#f1p53cne67t6ev)" rx="8" ry="8" style="stroke:#A80036;stroke-width:2.0;"/><path d="M45,858.0406 L45,885.0406 M32,866.0406 L58,866.0406 M45,885.0406 L32,900.0406 M45,885.0406 L58,900.0406 " fill="none" filter="url(#f1p53cne67t6ev)" style="stroke:#A80036;stroke-width:2.0;"/><rect fill="#FEFECE" filter="url(#f1p53cne67t6ev)" height="30.2969" style="stroke:#A80036;stroke-width:1.5;" width="36" x="191" y="53"/><text fill="#000000" font-family="sans-serif" font-size="14" lengthAdjust="spacing" textLength="22" x="198" y="72.9951">CLI</text><rect fill="#FEFECE" filter="url(#f1p53cne67t6ev)" height="30.2969" style="stroke:#A80036;stroke-width:1.5;" width="36" x="191" y="823.7438"/><text fill="#000000" font-family="sans-serif" font-size="14" lengthAdjust="spacing" textLength="22" x="198" y="843.7389">CLI</text><rect fill="#FEFECE" filter="url(#f1p53cne67t6ev)" height="30.2969" style="stroke:#A80036;stroke-width:1.5;" width="55" x="378.5" y="53"/><text fill="#000000" font-family="sans-serif" font-size="14" lengthAdjust="spacing" textLength="41" x="385.5" y="72.9951">Client</text><rect fill="#FEFECE" filter="url(#f1p53cne67t6ev)" height="30.2969" style="stroke:#A80036;stroke-width:1.5;" width="55" x="378.5" y="823.7438"/><text fill="#000000" font-family="sans-serif" font-size="14" lengthAdjust="spacing" textLength="41" x="385.5" y="843.7389">Client</text><rect fill="#FEFECE" filter="url(#f1p53cne67t6ev)" height="30.2969" style="stroke:#A80036;stroke-width:1.5;" width="61" x="586.5" y="53"/><text fill="#000000" font-family="sans-serif" font-size="14" lengthAdjust="spacing" textLength="47" x="593.5" y="72.9951">Server</text><rect fill="#FEFECE" filter="url(#f1p53cne67t6ev)" height="30.2969" style="stroke:#A80036;stroke-width:1.5;" width="61" x="586.5" y="823.7438"/><text fill="#000000" font-family="sans-serif" font-size="14" lengthAdjust="spacing" textLength="47" x="593.5" y="843.7389">Server</text><rect fill="#FEFECE" filter="url(#f1p53cne67t6ev)" height="30.2969" style="stroke:#A80036;stroke-width:1.5;" width="57" x="793.5" y="53"/><text fill="#000000" font-family="sans-serif" font-size="14" lengthAdjust="spacing" textLength="43" x="800.5" y="72.9951">Game</text><rect fill="#FEFECE" filter="url(#f1p53cne67t6ev)" height="30.2969" style="stroke:#A80036;stroke-width:1.5;" width="57" x="793.5" y="823.7438"/><text fill="#000000" font-family="sans-serif" font-size="14" lengthAdjust="spacing" textLength="43" x="800.5" y="843.7389">Game</text><rect fill="#FEFECE" filter="url(#f1p53cne67t6ev)" height="30.2969" style="stroke:#A80036;stroke-width:1.5;" width="85" x="984.5" y="53"/><text fill="#000000" font-family="sans-serif" font-size="14" lengthAdjust="spacing" textLength="71" x="991.5" y="72.9951">Controller</text><rect fill="#FEFECE" filter="url(#f1p53cne67t6ev)" height="30.2969" style="stroke:#A80036;stroke-width:1.5;" width="85" x="984.5" y="823.7438"/><text fill="#000000" font-family="sans-serif" font-size="14" lengthAdjust="spacing" textLength="71" x="991.5" y="843.7389">Controller</text><rect fill="#FEFECE" filter="url(#f1p53cne67t6ev)" height="30.2969" style="stroke:#A80036;stroke-width:1.5;" width="130" x="1123" y="53"/><text fill="#000000" font-family="sans-serif" font-size="14" lengthAdjust="spacing" textLength="116" x="1130" y="72.9951">ActionController</text><rect fill="#FEFECE" filter="url(#f1p53cne67t6ev)" height="30.2969" style="stroke:#A80036;stroke-width:1.5;" width="130" x="1123" y="823.7438"/><text fill="#000000" font-family="sans-serif" font-size="14" lengthAdjust="spacing" textLength="116" x="1130" y="843.7389">ActionController</text><rect fill="#FEFECE" filter="url(#f1p53cne67t6ev)" height="30.2969" style="stroke:#A80036;stroke-width:1.5;" width="101" x="1267" y="53"/><text fill="#000000" font-family="sans-serif" font-size="14" lengthAdjust="spacing" textLength="87" x="1274" y="72.9951">PlayerBoard</text><rect fill="#FEFECE" filter="url(#f1p53cne67t6ev)" height="30.2969" style="stroke:#A80036;stroke-width:1.5;" width="101" x="1267" y="823.7438"/><text fill="#000000" font-family="sans-serif" font-size="14" lengthAdjust="spacing" textLength="87" x="1274" y="843.7389">PlayerBoard</text><polygon fill="#A80036" points="199,115.4479,209,119.4479,199,123.4479,203,119.4479" style="stroke:#A80036;stroke-width:1.0;"/><line style="stroke:#A80036;stroke-width:1.0;" x1="45" x2="205" y1="119.4479" y2="119.4479"/><text fill="#000000" font-family="sans-serif" font-size="13" lengthAdjust="spacing" textLength="85" x="52" y="114.3783">"card leader"</text><polygon fill="#A80036" points="56,144.5989,46,148.5989,56,152.5989,52,148.5989" style="stroke:#A80036;stroke-width:1.0;"/><line style="stroke:#A80036;stroke-width:1.0;" x1="50" x2="210" y1="148.5989" y2="148.5989"/><text fill="#000000" font-family="sans-serif" font-size="13" lengthAdjust="spacing" textLength="131" x="62" y="143.5293">displayCardLeader()</text><polygon fill="#A80036" points="199,173.7499,209,177.7499,199,181.7499,203,177.7499" style="stroke:#A80036;stroke-width:1.0;"/><line style="stroke:#A80036;stroke-width:1.0;" x1="45" x2="205" y1="177.7499" y2="177.7499"/><text fill="#000000" font-family="sans-serif" font-size="13" lengthAdjust="spacing" textLength="142" x="52" y="172.6803">"activate card leader"</text><polygon fill="#A80036" points="56,202.9009,46,206.9009,56,210.9009,52,206.9009" style="stroke:#A80036;stroke-width:1.0;"/><line style="stroke:#A80036;stroke-width:1.0;" x1="50" x2="210" y1="206.9009" y2="206.9009"/><text fill="#000000" font-family="sans-serif" font-size="13" lengthAdjust="spacing" textLength="99" x="62" y="201.8313">indexRequest()</text><polygon fill="#A80036" points="199,232.0519,209,236.0519,199,240.0519,203,236.0519" style="stroke:#A80036;stroke-width:1.0;"/><line style="stroke:#A80036;stroke-width:1.0;" x1="45" x2="205" y1="236.0519" y2="236.0519"/><text fill="#000000" font-family="sans-serif" font-size="13" lengthAdjust="spacing" textLength="36" x="52" y="230.9823">Index</text><polygon fill="#A80036" points="396,261.2029,406,265.2029,396,269.2029,400,265.2029" style="stroke:#A80036;stroke-width:1.0;"/><line style="stroke:#A80036;stroke-width:1.0;" x1="211" x2="402" y1="265.2029" y2="265.2029"/><text fill="#000000" font-family="sans-serif" font-size="13" lengthAdjust="spacing" textLength="173" x="218" y="260.1333">askCardLeaderActivation()</text><polygon fill="#A80036" points="607,290.3539,617,294.3539,607,298.3539,611,294.3539" style="stroke:#A80036;stroke-width:1.0;"/><line style="stroke:#A80036;stroke-width:1.0;" x1="408" x2="613" y1="294.3539" y2="294.3539"/><text fill="#000000" font-family="sans-serif" font-size="13" lengthAdjust="spacing" textLength="187" x="415" y="289.2843">requestActivateCardLeader()</text><polygon fill="#A80036" points="812,319.5049,822,323.5049,812,327.5049,816,323.5049" style="stroke:#A80036;stroke-width:1.0;"/><line style="stroke:#A80036;stroke-width:1.0;" x1="619" x2="818" y1="323.5049" y2="323.5049"/><text fill="#000000" font-family="sans-serif" font-size="13" lengthAdjust="spacing" textLength="137" x="626" y="318.4353">activateLeaderCard()</text><polygon fill="#A80036" points="1017,348.6559,1027,352.6559,1017,356.6559,1021,352.6559" style="stroke:#A80036;stroke-width:1.0;"/><line style="stroke:#A80036;stroke-width:1.0;" x1="824" x2="1023" y1="352.6559" y2="352.6559"/><text fill="#000000" font-family="sans-serif" font-size="13" lengthAdjust="spacing" textLength="137" x="831" y="347.5863">activateLeaderCard()</text><polygon fill="#A80036" points="1178,377.8069,1188,381.8069,1178,385.8069,1182,381.8069" style="stroke:#A80036;stroke-width:1.0;"/><line style="stroke:#A80036;stroke-width:1.0;" x1="1029" x2="1184" y1="381.8069" y2="381.8069"/><text fill="#000000" font-family="sans-serif" font-size="13" lengthAdjust="spacing" textLength="137" x="1036" y="376.7373">activateCardLeader()</text><polygon fill="#A80036" points="1307.5,406.9579,1317.5,410.9579,1307.5,414.9579,1311.5,410.9579" style="stroke:#A80036;stroke-width:1.0;"/><line style="stroke:#A80036;stroke-width:1.0;" x1="1190" x2="1313.5" y1="410.9579" y2="410.9579"/><text fill="#000000" font-family="sans-serif" font-size="13" lengthAdjust="spacing" textLength="63" x="1197" y="405.8883">activate()</text><polygon fill="#A80036" points="1201,436.1089,1191,440.1089,1201,444.1089,1197,440.1089" style="stroke:#A80036;stroke-width:1.0;"/><line style="stroke:#A80036;stroke-width:1.0;stroke-dasharray:2.0,2.0;" x1="1195" x2="1318.5" y1="440.1089" y2="440.1089"/><text fill="#000000" font-family="sans-serif" font-size="13" lengthAdjust="spacing" textLength="47" x="1207" y="435.0393">answer</text><polygon fill="#A80036" points="1040,465.2599,1030,469.2599,1040,473.2599,1036,469.2599" style="stroke:#A80036;stroke-width:1.0;"/><line style="stroke:#A80036;stroke-width:1.0;stroke-dasharray:2.0,2.0;" x1="1034" x2="1189" y1="469.2599" y2="469.2599"/><text fill="#000000" font-family="sans-serif" font-size="13" lengthAdjust="spacing" textLength="47" x="1046" y="464.1903">answer</text><path d="M10,484.2599 L74,484.2599 L74,491.2599 L64,501.2599 L10,501.2599 L10,484.2599 " fill="#EEEEEE" style="stroke:#000000;stroke-width:1.0;"/><rect fill="none" height="323.4839" style="stroke:#000000;stroke-width:2.0;" width="1073.5" x="10" y="484.2599"/><text fill="#000000" font-family="sans-serif" font-size="13" font-weight="bold" lengthAdjust="spacing" textLength="19" x="25" y="497.3413">alt</text><text fill="#000000" font-family="sans-serif" font-size="11" font-weight="bold" lengthAdjust="spacing" textLength="184" x="89" y="496.4848">[move valid : answer == true]</text><polygon fill="#A80036" points="835,518.5619,825,522.5619,835,526.5619,831,522.5619" style="stroke:#A80036;stroke-width:1.0;"/><line style="stroke:#A80036;stroke-width:1.0;stroke-dasharray:2.0,2.0;" x1="829" x2="1028" y1="522.5619" y2="522.5619"/><text fill="#000000" font-family="sans-serif" font-size="13" lengthAdjust="spacing" textLength="181" x="841" y="517.4923">AnswerAcivateCardLeader()</text><polygon fill="#A80036" points="630,547.7129,620,551.7129,630,555.7129,626,551.7129" style="stroke:#A80036;stroke-width:1.0;"/><line style="stroke:#A80036;stroke-width:1.0;stroke-dasharray:2.0,2.0;" x1="624" x2="823" y1="551.7129" y2="551.7129"/><text fill="#000000" font-family="sans-serif" font-size="13" lengthAdjust="spacing" textLength="181" x="636" y="546.6433">AnswerAcivateCardLeader()</text><polygon fill="#A80036" points="419,576.8639,409,580.8639,419,584.8639,415,580.8639" style="stroke:#A80036;stroke-width:1.0;"/><line style="stroke:#A80036;stroke-width:1.0;stroke-dasharray:2.0,2.0;" x1="413" x2="618" y1="580.8639" y2="580.8639"/><text fill="#000000" font-family="sans-serif" font-size="13" lengthAdjust="spacing" textLength="186" x="425" y="575.7943">AnswerActivateCardLeader()</text><polygon fill="#A80036" points="222,606.0149,212,610.0149,222,614.0149,218,610.0149" style="stroke:#A80036;stroke-width:1.0;"/><line style="stroke:#A80036;stroke-width:1.0;" x1="216" x2="407" y1="610.0149" y2="610.0149"/><text fill="#000000" font-family="sans-serif" font-size="13" lengthAdjust="spacing" textLength="61" x="228" y="604.9453">success()</text><polygon fill="#A80036" points="56,635.1659,46,639.1659,56,643.1659,52,639.1659" style="stroke:#A80036;stroke-width:1.0;"/><line style="stroke:#A80036;stroke-width:1.0;" x1="50" x2="210" y1="639.1659" y2="639.1659"/><text fill="#000000" font-family="sans-serif" font-size="13" lengthAdjust="spacing" textLength="109" x="62" y="634.0963">displaySuccess()</text><line style="stroke:#000000;stroke-width:1.0;stroke-dasharray:2.0,2.0;" x1="10" x2="1083.5" y1="648.1659" y2="648.1659"/><text fill="#000000" font-family="sans-serif" font-size="11" font-weight="bold" lengthAdjust="spacing" textLength="201" x="15" y="658.3908">[move invalid : answer == false]</text><polygon fill="#A80036" points="835,679.1398,825,683.1398,835,687.1398,831,683.1398" style="stroke:#A80036;stroke-width:1.0;"/><line style="stroke:#A80036;stroke-width:1.0;stroke-dasharray:2.0,2.0;" x1="829" x2="1028" y1="683.1398" y2="683.1398"/><text fill="#000000" font-family="sans-serif" font-size="13" lengthAdjust="spacing" textLength="114" x="841" y="678.0702">GameLogicError()</text><polygon fill="#A80036" points="630,708.2908,620,712.2908,630,716.2908,626,712.2908" style="stroke:#A80036;stroke-width:1.0;"/><line style="stroke:#A80036;stroke-width:1.0;stroke-dasharray:2.0,2.0;" x1="624" x2="823" y1="712.2908" y2="712.2908"/><text fill="#000000" font-family="sans-serif" font-size="13" lengthAdjust="spacing" textLength="114" x="636" y="707.2212">GameLogicError()</text><polygon fill="#A80036" points="419,737.4418,409,741.4418,419,745.4418,415,741.4418" style="stroke:#A80036;stroke-width:1.0;"/><line style="stroke:#A80036;stroke-width:1.0;stroke-dasharray:2.0,2.0;" x1="413" x2="618" y1="741.4418" y2="741.4418"/><text fill="#000000" font-family="sans-serif" font-size="13" lengthAdjust="spacing" textLength="114" x="425" y="736.3722">GameLogicError()</text><polygon fill="#A80036" points="222,766.5928,212,770.5928,222,774.5928,218,770.5928" style="stroke:#A80036;stroke-width:1.0;"/><line style="stroke:#A80036;stroke-width:1.0;stroke-dasharray:2.0,2.0;" x1="216" x2="407" y1="770.5928" y2="770.5928"/><text fill="#000000" font-family="sans-serif" font-size="13" lengthAdjust="spacing" textLength="110" x="228" y="765.5232">printGameError()</text><polygon fill="#A80036" points="56,795.7438,46,799.7438,56,803.7438,52,799.7438" style="stroke:#A80036;stroke-width:1.0;"/><line style="stroke:#A80036;stroke-width:1.0;stroke-dasharray:2.0,2.0;" x1="50" x2="210" y1="799.7438" y2="799.7438"/><text fill="#000000" font-family="sans-serif" font-size="13" lengthAdjust="spacing" textLength="127" x="62" y="794.6742">displayGameError()</text><!--MD5=[f7fab0c5c8d05452d7052696e3cb8222]
@startuml
actor Player as Player

Player-> CLI: "card leader"
Player<- CLI: displayCardLeader()
Player-> CLI: "activate card leader"
Player<- CLI: indexRequest()
Player -> CLI: Index 
CLI-> Client: askCardLeaderActivation()
Client-> Server: requestActivateCardLeader()

Server-> Game: activateLeaderCard()
Game-> Controller: activateLeaderCard()
Controller-> ActionController: activateCardLeader()
ActionController-> PlayerBoard: activate()

PlayerBoard- -> ActionController: answer
ActionController- -> Controller: answer
alt move valid : answer == true
    Game<- - Controller: AnswerAcivateCardLeader()
    Server<- - Game: AnswerAcivateCardLeader()
    Client<- - Server: AnswerActivateCardLeader()
    CLI<- Client: success()
    Player<- CLI: displaySuccess()


else move invalid : answer == false
    Game<- - Controller: GameLogicError()
    Server<- - Game: GameLogicError()
    Client<- - Server: GameLogicError()
    CLI <- - Client: printGameError()
    Player <- - CLI: displayGameError()
    
end
@enduml

PlantUML version 1.2021.7(Sun May 23 14:40:07 CEST 2021)
(GPL source distribution)
Java Runtime: OpenJDK Runtime Environment
JVM: Dynamic Code Evolution 64-Bit Server VM
Default Encoding: UTF-8
Language: en
Country: US
--></g></svg>